{"glyphs":{"0":{"ha":882,"x_min":39,"x_max":843,"o":"m 39 422 q 150 747 39 624 q 441 869 261 869 q 732 747 622 869 q 843 422 843 625 q 732 99 843 221 q 440 -24 621 -24 q 149 98 260 -24 q 39 422 39 220 m 296 422 q 330 174 296 250 q 440 98 364 98 q 551 175 517 98 q 586 422 586 251 q 552 671 586 595 q 441 747 518 747 q 330 671 365 747 q 296 422 296 594 z "},"1":{"ha":882,"x_min":158,"x_max":724,"o":"m 158 0 l 158 115 l 221 115 q 302 128 283 115 q 322 196 322 141 l 322 222 l 322 614 l 158 614 l 159 728 q 310 758 253 729 q 389 846 367 787 l 567 846 l 567 214 q 583 131 567 146 q 668 115 600 115 l 724 115 l 724 0 l 158 0 z "},"2":{"ha":882,"x_min":58,"x_max":810,"o":"m 60 0 q 59 18 59 8 q 58 46 58 27 q 91 189 58 124 q 191 314 123 254 q 341 413 238 355 q 408 452 387 438 q 497 527 473 492 q 521 610 521 562 q 476 706 521 669 q 355 742 431 742 q 253 718 294 742 q 193 646 212 693 q 217 651 205 649 q 236 653 228 653 q 307 627 279 653 q 334 558 334 600 q 297 476 334 510 q 205 443 260 443 q 98 484 138 443 q 58 596 58 526 q 161 791 58 713 q 421 869 264 869 q 689 793 589 869 q 789 589 789 716 q 724 425 789 493 q 534 319 660 357 q 484 305 516 314 q 221 165 278 245 q 306 200 263 189 q 396 211 349 211 q 517 196 447 211 q 607 180 587 180 q 668 208 650 180 q 686 298 686 235 l 808 298 q 809 278 809 289 q 810 248 810 268 q 749 41 810 108 q 559 -25 688 -25 q 406 12 498 -25 q 385 21 391 18 q 309 46 338 39 q 260 54 280 54 q 211 41 231 54 q 178 0 190 27 l 60 0 z "},"3":{"ha":882,"x_min":62,"x_max":819,"o":"m 364 385 l 364 501 q 491 536 450 505 q 533 625 533 567 q 488 721 533 686 q 366 755 443 755 q 290 744 323 755 q 229 708 256 732 l 241 708 q 312 684 286 708 q 338 618 338 659 q 305 538 338 568 q 218 509 273 509 q 124 543 159 509 q 90 637 90 577 q 181 806 90 743 q 427 869 271 869 q 692 810 599 869 q 785 642 785 751 q 738 520 785 570 q 607 457 690 471 q 767 377 714 430 q 819 243 819 323 q 714 42 819 111 q 408 -26 610 -26 q 155 36 248 -26 q 62 205 62 99 q 102 315 62 273 q 205 357 142 357 q 294 323 258 357 q 329 240 329 290 q 299 166 329 194 q 216 139 269 139 q 283 104 246 115 q 370 93 321 93 q 505 134 458 93 q 553 252 553 175 q 507 352 553 320 q 364 385 461 385 z "},"4":{"ha":882,"x_min":54,"x_max":831,"o":"m 314 0 l 314 115 l 351 115 q 438 127 417 115 q 458 195 458 138 l 458 200 l 458 257 l 54 257 l 54 390 l 486 846 l 696 846 l 696 379 l 831 379 l 831 257 l 696 257 l 696 174 q 714 127 696 138 q 794 115 733 115 l 831 115 l 831 0 l 314 0 m 193 379 l 458 379 l 461 652 l 193 379 z "},"5":{"ha":882,"x_min":71,"x_max":808,"o":"m 126 429 l 151 865 q 312 846 232 852 q 473 840 392 840 q 644 853 557 840 q 732 867 730 867 q 753 860 746 867 q 761 843 761 854 q 659 726 761 777 q 407 675 557 675 q 341 679 376 675 q 268 689 307 682 l 262 567 q 350 601 304 590 q 450 612 396 612 q 711 527 613 612 q 808 297 808 441 q 699 64 808 153 q 411 -25 589 -25 q 163 40 256 -25 q 71 212 71 106 q 111 317 71 277 q 216 357 151 357 q 304 324 270 357 q 339 240 339 291 q 310 169 339 196 q 228 136 281 141 q 294 101 262 113 q 359 90 326 90 q 495 148 446 90 q 543 309 543 205 q 500 437 543 389 q 386 485 458 485 q 314 471 345 485 q 260 429 283 457 l 126 429 z "},"6":{"ha":882,"x_min":65,"x_max":818,"o":"m 321 461 q 415 507 366 492 q 522 522 465 522 q 738 450 659 522 q 818 256 818 378 q 720 53 818 131 q 464 -25 622 -25 q 172 89 279 -25 q 65 400 65 202 q 179 744 65 618 q 492 869 292 869 q 706 819 626 869 q 786 686 786 768 q 750 600 786 633 q 656 567 713 567 q 567 595 600 567 q 533 671 533 624 q 547 718 533 698 q 587 750 560 737 q 551 760 569 757 q 518 764 534 764 q 371 691 421 764 q 321 478 321 618 l 321 461 m 453 87 q 535 127 505 87 q 566 236 566 168 q 535 360 566 317 q 450 404 505 404 q 365 361 398 404 q 332 249 332 318 q 363 129 332 171 q 453 87 395 87 z "},"7":{"ha":882,"x_min":69,"x_max":814,"o":"m 265 0 l 265 24 q 294 231 265 137 q 380 403 322 325 q 486 512 400 429 q 625 663 571 595 q 565 640 597 647 q 493 632 532 632 q 400 644 458 632 q 319 656 342 656 q 224 618 256 656 q 193 504 193 581 q 195 476 193 498 q 196 453 195 462 l 69 453 l 69 846 l 196 846 l 196 743 q 286 829 239 802 q 395 856 334 856 q 539 823 456 856 q 644 790 621 790 q 688 803 672 790 q 704 838 704 816 l 704 846 l 812 846 q 813 836 813 842 q 814 819 814 830 q 696 551 814 736 q 668 505 677 521 q 552 260 583 365 q 522 32 522 156 l 522 0 l 265 0 z "},"8":{"ha":882,"x_min":50,"x_max":829,"o":"m 216 418 q 119 504 151 455 q 86 615 86 553 q 182 804 86 735 q 450 872 279 872 q 691 814 600 872 q 782 664 782 757 q 747 566 782 608 q 639 496 711 525 q 782 402 734 462 q 829 257 829 342 q 722 51 829 126 q 424 -24 614 -24 q 147 40 244 -24 q 50 222 50 104 q 94 341 50 290 q 216 418 137 392 m 529 545 q 590 594 570 566 q 610 660 610 623 q 565 732 610 705 q 446 760 521 760 q 340 736 378 760 q 302 672 302 713 q 509 551 302 611 l 529 545 m 323 357 q 247 300 272 332 q 222 227 222 268 q 275 124 222 162 q 416 86 328 86 q 558 113 513 86 q 604 197 604 140 q 555 264 604 233 q 323 357 506 295 z "},"9":{"ha":882,"x_min":64,"x_max":817,"o":"m 429 758 q 347 718 378 758 q 317 610 317 678 q 347 485 317 529 q 432 440 377 440 q 518 484 484 440 q 551 597 551 528 q 519 716 551 674 q 429 758 488 758 m 562 385 q 467 337 516 353 q 359 322 417 322 q 144 394 224 322 q 64 589 64 466 q 162 793 64 715 q 418 871 260 871 q 710 757 604 871 q 817 446 817 644 q 703 101 817 227 q 390 -25 589 -25 q 176 26 256 -25 q 96 160 96 77 q 132 246 96 212 q 228 279 169 279 q 316 250 283 279 q 349 174 349 221 q 335 128 349 147 q 294 96 322 109 q 333 84 316 88 q 364 81 349 81 q 512 154 461 81 q 562 368 562 227 l 562 385 z "},"":{"ha":833,"x_min":69,"x_max":764,"o":"m 69 -245 l 69 979 l 764 979 l 764 -245 l 69 -245 m 147 -168 l 686 -168 l 686 901 l 147 901 l 147 -168 z "}," ":{"ha":441,"x_min":0,"x_max":0,"o":""},"!":{"ha":439,"x_min":87,"x_max":350,"o":"m 155 292 q 116 582 144 413 q 87 798 87 750 q 124 917 87 873 q 222 961 160 961 q 315 922 279 961 q 350 817 350 882 q 320 565 350 739 q 284 292 290 391 l 155 292 m 338 90 q 303 6 338 41 q 220 -28 269 -28 q 136 6 170 -28 q 103 90 103 40 q 137 173 103 139 q 220 207 170 207 q 303 173 269 207 q 338 90 338 139 z "},"\"":{"ha":486,"x_min":50,"x_max":435,"o":"m 375 574 l 345 574 l 288 888 q 285 903 286 898 q 285 913 285 908 q 305 971 285 949 q 359 993 325 993 q 414 971 394 993 q 435 914 435 950 q 434 898 435 903 q 433 887 434 892 l 375 574 m 140 574 l 111 574 l 53 887 q 51 903 51 898 q 50 913 50 908 q 70 971 50 949 q 125 993 90 993 q 181 971 160 993 q 201 914 201 950 q 201 903 201 909 q 199 888 200 897 l 140 574 z "},"#":{"ha":1068,"x_min":16,"x_max":1053,"o":"m 478 572 l 421 412 l 593 412 l 650 572 l 478 572 m 464 994 l 632 994 l 538 728 l 701 728 l 796 994 l 964 994 l 869 728 l 1053 728 l 994 572 l 814 572 l 758 414 l 946 414 l 889 258 l 703 258 l 607 -8 l 439 -8 l 534 258 l 371 258 l 275 -8 l 107 -8 l 203 258 l 16 258 l 74 414 l 258 414 l 314 572 l 121 572 l 179 728 l 370 728 l 464 994 z "},"$":{"ha":882,"x_min":58,"x_max":825,"o":"m 498 296 l 498 90 q 596 124 563 98 q 629 195 629 151 q 598 259 629 235 q 498 296 568 283 m 397 -153 l 397 0 q 381 -1 392 0 q 364 -1 370 -1 q 141 50 224 -1 q 58 186 58 102 q 93 275 58 241 q 183 309 127 309 q 264 280 232 309 q 296 210 296 252 q 275 157 296 177 q 214 132 254 137 q 291 99 246 110 q 397 89 335 89 l 397 322 q 148 415 223 354 q 72 582 72 475 q 159 766 72 694 q 397 846 247 837 l 397 939 l 498 939 l 498 844 q 718 786 637 836 q 799 659 799 735 q 768 583 799 612 q 689 554 738 554 q 611 580 641 554 q 581 647 581 606 q 592 688 581 671 q 627 715 604 705 q 568 738 600 730 q 498 746 536 746 l 498 522 q 748 429 670 491 q 825 261 825 367 q 737 77 825 148 q 499 0 648 5 l 498 -153 l 397 -153 m 397 747 q 303 717 334 741 q 273 650 273 693 q 303 584 273 608 q 397 547 333 559 l 397 747 z "},"%":{"ha":1333,"x_min":45,"x_max":1289,"o":"m 764 243 q 837 437 764 363 q 1026 511 909 511 q 1216 437 1143 511 q 1289 243 1289 363 q 1217 50 1289 123 q 1026 -24 1145 -24 q 836 50 909 -24 q 764 243 764 123 m 932 243 q 954 110 932 151 q 1026 69 977 69 q 1099 110 1076 69 q 1121 243 1121 151 q 1099 375 1121 334 q 1026 415 1076 415 q 954 375 977 415 q 932 243 932 334 m 45 603 q 117 796 45 722 q 307 869 189 869 q 496 797 425 869 q 568 603 568 724 q 496 409 568 482 q 306 335 423 335 q 116 409 188 335 q 45 603 45 482 m 211 603 q 233 470 211 511 q 306 429 256 429 q 379 470 356 429 q 401 603 401 511 q 379 734 401 694 q 307 775 357 775 q 234 734 257 775 q 211 603 211 693 m 345 -25 l 867 871 l 989 871 l 468 -25 l 345 -25 z "},"&":{"ha":1235,"x_min":57,"x_max":1174,"o":"m 1042 326 l 1171 326 q 1173 288 1173 301 q 1174 265 1174 275 q 1102 45 1174 119 q 888 -28 1030 -28 q 785 -9 838 -28 q 671 50 732 10 q 542 -8 610 11 q 397 -28 474 -28 q 148 51 239 -28 q 57 264 57 130 q 114 447 57 370 q 288 570 172 523 q 253 655 264 616 q 241 729 241 694 q 311 892 241 827 q 482 958 380 958 q 653 901 588 958 q 718 750 718 843 q 681 629 718 685 q 568 525 644 573 l 576 514 q 741 296 677 365 q 800 370 780 338 q 819 427 819 403 q 802 453 819 444 q 750 461 785 461 q 729 461 736 461 q 715 460 722 460 l 715 581 l 1112 581 l 1112 460 l 1096 460 q 1024 449 1053 460 q 979 416 995 439 q 924 326 970 405 q 833 187 879 248 q 892 138 867 153 q 942 122 918 122 q 1018 165 994 122 q 1042 300 1042 208 l 1042 326 m 359 435 q 305 370 323 403 q 288 297 288 336 q 338 168 288 221 q 460 114 388 114 q 512 123 485 114 q 571 150 539 132 q 479 257 533 184 q 359 435 426 329 m 486 648 q 556 696 532 667 q 581 762 581 725 q 562 814 581 795 q 513 833 544 833 q 458 816 478 833 q 439 768 439 798 q 451 715 439 746 q 486 648 463 684 z "},"'":{"ha":252,"x_min":50,"x_max":201,"o":"m 140 574 l 111 574 l 53 887 q 51 903 51 898 q 50 913 50 908 q 71 971 50 949 q 126 993 92 993 q 181 971 161 993 q 201 914 201 950 q 201 903 201 909 q 199 888 200 897 l 140 574 z "},"(":{"ha":562,"x_min":43,"x_max":525,"o":"m 525 -273 q 171 -102 300 -262 q 43 328 43 58 q 164 777 43 618 q 525 954 286 935 l 525 835 q 348 698 400 806 q 296 342 296 589 q 349 -16 296 96 q 525 -154 401 -128 l 525 -273 z "},")":{"ha":562,"x_min":39,"x_max":521,"o":"m 39 -273 l 39 -154 q 215 -16 163 -128 q 268 342 268 96 q 216 698 268 589 q 39 835 164 806 l 39 954 q 399 777 277 935 q 521 328 521 618 q 392 -102 521 58 q 39 -273 264 -262 z "},"*":{"ha":694,"x_min":69,"x_max":625,"o":"m 333 680 q 298 803 330 737 q 267 888 267 869 q 289 940 267 920 q 347 960 311 960 q 405 938 381 960 q 428 888 428 917 q 396 805 428 869 q 360 681 364 740 q 410 718 386 694 q 456 777 433 742 q 460 784 457 779 q 545 850 505 850 q 600 825 576 850 q 624 768 624 800 q 601 709 624 728 q 519 688 577 691 q 431 676 465 684 q 375 656 397 669 q 533 621 429 626 q 546 621 541 621 q 604 598 583 618 q 625 547 625 578 q 601 484 625 509 q 543 458 577 458 q 462 522 505 458 q 453 534 456 530 q 404 597 426 574 q 363 630 382 621 q 397 509 365 574 q 429 424 429 444 q 406 372 429 393 q 347 351 382 351 q 289 370 310 351 q 268 424 268 389 q 299 507 268 440 q 335 629 330 573 q 288 594 310 617 q 241 533 266 572 q 237 526 240 531 q 151 460 195 460 q 93 486 117 460 q 69 547 69 511 q 91 598 69 581 q 157 621 113 616 q 172 622 162 621 q 319 654 273 629 q 164 688 266 684 q 146 689 153 688 q 91 711 112 690 q 69 762 69 731 q 93 823 69 798 q 151 848 117 848 q 236 783 193 848 q 242 774 239 779 l 242 774 q 333 680 286 709 z "},"+":{"ha":1157,"x_min":172,"x_max":985,"o":"m 498 828 l 660 828 l 660 493 l 985 493 l 985 336 l 660 336 l 660 0 l 498 0 l 498 336 l 172 336 l 172 493 l 498 493 l 498 828 z "},",":{"ha":441,"x_min":92,"x_max":349,"o":"m 228 -20 q 215 -22 222 -21 q 196 -22 209 -22 q 120 7 149 -22 q 92 83 92 36 q 126 169 92 134 q 212 203 161 203 q 311 162 274 203 q 349 53 349 121 q 280 -112 349 -43 q 97 -201 212 -181 l 97 -123 q 184 -90 152 -115 q 228 -20 216 -64 z "},"-":{"ha":492,"x_min":50,"x_max":441,"o":"m 441 224 l 50 224 l 50 432 l 441 432 l 441 224 z "},".":{"ha":441,"x_min":103,"x_max":338,"o":"m 103 89 q 137 172 103 138 q 221 207 172 207 q 303 173 269 207 q 338 89 338 138 q 304 5 338 39 q 221 -28 271 -28 q 137 6 171 -28 q 103 89 103 40 z "},"/":{"ha":392,"x_min":-40,"x_max":433,"o":"m 74 -129 l -40 -129 l 317 960 l 433 960 l 74 -129 z "},":":{"ha":441,"x_min":103,"x_max":338,"o":"m 103 90 q 137 173 103 139 q 221 207 172 207 q 304 173 270 207 q 338 90 338 139 q 304 6 338 40 q 221 -28 271 -28 q 137 6 172 -28 q 103 90 103 41 m 103 509 q 137 592 103 557 q 221 627 172 627 q 303 592 269 627 q 338 509 338 557 q 304 425 338 458 q 221 392 271 392 q 137 426 171 392 q 103 509 103 459 z "},";":{"ha":441,"x_min":90,"x_max":349,"o":"m 227 -20 q 214 -22 220 -21 q 195 -22 208 -22 q 119 7 148 -22 q 90 83 90 36 q 125 169 90 134 q 211 203 160 203 q 311 161 273 203 q 349 53 349 120 q 280 -112 349 -43 q 97 -201 212 -181 l 97 -123 q 183 -90 152 -115 q 227 -20 214 -65 m 97 509 q 131 592 97 557 q 214 627 165 627 q 297 592 263 627 q 332 509 332 557 q 298 425 332 458 q 214 392 264 392 q 131 426 164 392 q 97 509 97 459 z "},"<":{"ha":1157,"x_min":179,"x_max":978,"o":"m 978 823 l 978 652 l 399 414 l 978 178 l 978 5 l 179 335 l 179 493 l 978 823 z "},"=":{"ha":1157,"x_min":172,"x_max":985,"o":"m 172 340 l 985 340 l 985 184 l 172 184 l 172 340 m 172 644 l 985 644 l 985 488 l 172 488 l 172 644 z "},">":{"ha":1157,"x_min":179,"x_max":978,"o":"m 179 823 l 978 493 l 978 335 l 179 5 l 179 178 l 758 414 l 179 652 l 179 823 z "},"?":{"ha":786,"x_min":62,"x_max":722,"o":"m 245 90 q 279 173 245 139 q 363 207 313 207 q 446 173 412 207 q 481 90 481 139 q 447 6 481 40 q 363 -28 412 -28 q 279 6 313 -28 q 245 90 245 41 m 294 295 q 293 303 294 298 q 293 317 293 307 q 306 392 293 355 q 343 463 319 429 q 383 517 356 481 q 468 696 468 627 q 426 789 468 751 q 319 827 383 827 q 220 794 262 827 q 174 714 179 762 q 206 723 191 720 q 232 726 220 726 q 306 699 279 726 q 334 625 334 672 q 299 537 334 568 q 201 505 264 505 q 102 554 142 505 q 62 679 62 604 q 155 881 62 802 q 393 960 248 960 q 630 887 538 960 q 722 703 722 815 q 692 584 722 636 q 593 481 662 532 q 551 451 578 470 q 432 294 439 372 l 294 295 z "},"@":{"ha":1369,"x_min":87,"x_max":1283,"o":"m 794 212 q 706 115 753 148 q 606 82 659 82 q 442 143 500 82 q 385 317 385 204 q 419 468 385 395 q 518 602 453 541 q 620 666 564 644 q 733 689 675 689 q 835 659 798 689 q 880 570 871 629 l 913 676 l 1054 676 l 936 253 q 928 217 930 230 q 926 193 926 204 q 939 144 926 163 q 974 126 952 126 q 1031 145 994 126 q 1100 192 1068 163 q 1200 335 1166 251 q 1235 521 1235 420 q 1212 670 1235 603 q 1143 786 1189 736 q 984 899 1076 860 q 781 937 891 937 q 601 910 686 937 q 443 831 515 884 q 270 625 330 749 q 210 351 210 501 q 349 -9 210 123 q 726 -142 488 -142 q 940 -108 837 -142 q 1154 -1 1043 -75 l 1182 -40 q 964 -156 1080 -117 q 726 -195 849 -195 q 260 -42 433 -195 q 87 366 87 110 q 147 624 87 503 q 318 836 206 745 q 523 951 411 912 q 761 990 635 990 q 1140 862 998 990 q 1283 519 1283 733 q 1243 315 1283 408 q 1126 153 1203 221 q 1040 98 1086 117 q 945 79 993 79 q 839 115 878 79 q 794 212 799 151 m 765 639 q 690 609 724 639 q 624 514 656 579 q 564 366 585 438 q 543 239 543 294 q 565 162 543 191 q 624 134 587 134 q 702 175 664 134 q 775 297 740 216 q 821 432 804 364 q 838 545 838 499 q 819 614 838 590 q 765 639 800 639 z "},"A":{"ha":994,"x_min":-18,"x_max":1013,"o":"m 541 421 l 447 715 l 351 421 l 541 421 m -18 0 l -18 122 l 16 122 q 82 137 61 122 q 123 212 103 151 l 363 932 l 640 932 l 869 208 q 906 139 887 155 q 965 122 926 122 l 1013 122 l 1013 0 l 498 0 l 498 122 l 538 122 q 605 129 588 122 q 623 155 623 136 q 618 175 622 161 q 615 185 616 182 l 579 300 l 311 300 l 276 193 q 271 173 273 183 q 269 155 269 163 q 283 129 269 136 q 345 122 298 122 l 390 122 l 390 0 l -18 0 z "},"B":{"ha":1025,"x_min":26,"x_max":971,"o":"m 424 545 l 486 545 q 622 577 579 545 q 664 681 664 610 q 624 779 664 749 q 492 810 583 810 l 424 810 l 424 545 m 424 122 l 497 122 q 648 158 601 122 q 696 272 696 194 q 648 390 696 353 q 496 427 601 427 l 424 427 l 424 122 m 26 0 l 26 122 l 78 122 q 148 136 132 122 q 163 203 163 149 l 163 729 q 148 797 163 783 q 78 810 132 810 l 26 810 l 26 932 l 571 932 q 839 879 753 932 q 924 713 924 826 q 874 579 924 635 q 730 493 825 523 q 912 408 852 467 q 971 256 971 350 q 876 59 971 119 q 555 0 781 0 l 26 0 z "},"C":{"ha":1022,"x_min":46,"x_max":957,"o":"m 810 361 l 957 361 q 847 70 951 168 q 542 -28 743 -28 q 181 106 315 -28 q 46 467 46 241 q 81 668 46 579 q 187 828 115 757 q 339 928 256 896 q 530 960 422 960 q 673 938 606 960 q 802 869 740 916 l 829 943 l 957 943 l 957 564 l 821 564 q 750 755 812 686 q 586 823 688 823 q 411 730 474 823 q 349 468 349 637 q 411 204 349 296 q 587 111 473 111 q 744 177 685 111 q 810 361 802 243 z "},"D":{"ha":1114,"x_min":26,"x_max":1068,"o":"m 424 122 l 519 122 q 708 202 651 122 q 765 467 765 281 q 708 732 765 655 q 513 810 651 810 l 424 810 l 424 122 m 26 0 l 26 122 l 78 122 q 148 136 132 122 q 163 203 163 149 l 163 729 q 148 797 163 783 q 78 810 132 810 l 26 810 l 26 932 l 519 932 q 933 817 798 932 q 1068 467 1068 703 q 933 115 1068 230 q 519 0 798 0 l 26 0 z "},"E":{"ha":1039,"x_min":26,"x_max":947,"o":"m 26 0 l 26 122 l 78 122 q 148 136 132 122 q 163 203 163 149 l 163 729 q 148 797 163 783 q 78 810 132 810 l 26 810 l 26 932 l 947 932 l 947 576 l 825 576 q 798 700 814 658 q 757 765 783 741 q 690 800 731 789 q 545 810 650 810 l 424 810 l 424 545 l 447 545 q 550 574 524 545 q 576 692 576 603 l 693 692 l 693 267 l 576 267 q 551 393 574 364 q 447 422 527 422 l 424 422 l 424 122 l 549 122 q 756 175 702 122 q 825 385 810 228 l 947 385 l 947 0 l 26 0 z "},"F":{"ha":961,"x_min":26,"x_max":900,"o":"m 26 0 l 26 122 l 78 122 q 148 136 132 122 q 163 203 163 149 l 163 729 q 148 797 163 783 q 78 810 132 810 l 26 810 l 26 932 l 900 932 l 900 551 l 778 551 q 755 690 771 640 q 710 766 739 739 q 646 800 686 790 q 497 810 607 810 l 424 810 l 424 545 l 433 545 q 525 575 499 545 q 550 685 550 606 l 550 692 l 667 692 l 667 267 l 550 267 q 526 391 549 357 q 444 424 503 424 q 434 423 441 424 q 424 422 427 422 l 424 203 q 439 136 424 150 q 510 122 454 122 l 568 122 l 568 0 l 26 0 z "},"G":{"ha":1086,"x_min":46,"x_max":1078,"o":"m 840 -9 l 806 61 q 664 -6 736 16 q 511 -28 591 -28 q 172 102 298 -28 q 46 453 46 232 q 177 819 46 679 q 517 960 307 960 q 660 939 593 960 q 789 873 726 918 l 812 942 l 940 942 l 940 567 l 807 567 q 734 758 792 696 q 568 821 675 821 q 404 735 460 821 q 349 484 349 650 q 400 198 349 287 q 562 110 451 110 q 673 136 642 110 q 704 235 704 163 l 704 300 q 692 361 704 350 q 637 372 680 372 l 570 372 l 570 494 l 1078 494 l 1078 372 l 1028 372 q 977 359 991 372 q 964 310 964 346 l 964 -9 l 840 -9 z "},"H":{"ha":1149,"x_min":26,"x_max":1122,"o":"m 26 0 l 26 122 l 78 122 q 148 136 132 122 q 163 203 163 149 l 163 729 q 148 797 163 783 q 78 810 132 810 l 26 810 l 26 932 l 536 932 l 536 810 l 510 810 q 439 796 454 810 q 424 729 424 782 l 424 547 l 725 547 l 725 729 q 709 796 725 782 q 639 810 694 810 l 612 810 l 612 932 l 1122 932 l 1122 810 l 1071 810 q 1000 796 1016 810 q 985 729 985 782 l 985 203 q 1000 136 985 150 q 1071 122 1016 122 l 1122 122 l 1122 0 l 612 0 l 612 122 l 639 122 q 709 136 694 122 q 725 203 725 150 l 725 421 l 424 421 l 424 203 q 439 136 424 150 q 510 122 454 122 l 536 122 l 536 0 l 26 0 z "},"I":{"ha":608,"x_min":29,"x_max":579,"o":"m 29 0 l 29 122 l 86 122 q 156 136 140 122 q 171 203 171 149 l 171 729 q 156 797 171 783 q 86 810 140 810 l 29 810 l 29 932 l 579 932 l 579 810 l 522 810 q 452 796 467 810 q 436 729 436 782 l 436 203 q 452 136 436 150 q 522 122 467 122 l 579 122 l 579 0 l 29 0 z "},"J":{"ha":847,"x_min":22,"x_max":833,"o":"m 432 729 q 416 796 432 782 q 346 810 401 810 l 288 810 l 288 932 l 833 932 l 833 810 l 783 810 q 713 796 728 810 q 697 729 697 782 l 697 313 q 614 54 697 136 q 353 -28 531 -28 q 113 47 204 -28 q 22 241 22 121 q 64 365 22 317 q 174 412 106 412 q 272 376 233 412 q 310 283 310 340 q 280 203 310 233 q 199 174 250 174 q 172 176 186 174 q 143 182 157 178 q 205 126 169 144 q 286 107 241 107 q 398 154 364 107 q 432 313 432 201 l 432 729 z "},"K":{"ha":1120,"x_min":26,"x_max":1128,"o":"m 26 0 l 26 122 l 78 122 q 148 136 132 122 q 163 203 163 149 l 163 729 q 148 797 163 783 q 78 810 132 810 l 26 810 l 26 932 l 536 932 l 536 810 l 504 810 q 433 796 449 810 q 418 729 418 782 l 418 484 l 729 753 q 745 771 740 762 q 750 787 750 779 q 738 804 750 799 q 699 810 725 810 l 633 810 l 633 932 l 1099 932 l 1099 810 l 1054 810 q 912 732 1003 810 l 911 732 l 750 591 l 1003 182 q 1042 135 1023 149 q 1088 122 1061 122 l 1128 122 l 1128 0 l 625 0 l 625 122 l 665 122 q 714 129 700 122 q 729 150 729 135 q 727 161 729 155 q 718 178 725 166 l 566 431 l 418 304 l 418 203 q 433 136 418 150 q 504 122 449 122 l 536 122 l 536 0 l 26 0 z "},"L":{"ha":961,"x_min":26,"x_max":900,"o":"m 26 932 l 568 932 l 568 810 l 510 810 q 439 796 454 810 q 424 729 424 782 l 424 122 l 497 122 q 644 132 603 122 q 710 167 684 142 q 755 243 739 194 q 778 380 771 292 l 900 380 l 900 0 l 26 0 l 26 122 l 78 122 q 148 136 132 122 q 163 203 163 149 l 163 729 q 148 797 163 783 q 78 810 132 810 l 26 810 l 26 932 z "},"M":{"ha":1360,"x_min":26,"x_max":1333,"o":"m 313 203 q 328 136 313 150 q 399 122 343 122 l 425 122 l 425 0 l 26 0 l 26 122 l 72 122 q 143 136 127 122 q 158 203 158 150 l 158 729 q 143 796 158 782 q 72 810 127 810 l 26 810 l 26 932 l 515 932 l 677 358 l 848 932 l 1333 932 l 1333 810 l 1286 810 q 1215 796 1231 810 q 1200 729 1200 782 l 1200 203 q 1215 136 1200 150 q 1286 122 1231 122 l 1333 122 l 1333 0 l 844 0 l 844 122 l 872 122 q 942 136 926 122 q 957 203 957 149 l 957 785 l 725 0 l 538 0 l 313 786 l 313 203 z "},"N":{"ha":1136,"x_min":26,"x_max":1116,"o":"m 161 729 q 146 796 161 782 q 75 810 130 810 l 26 810 l 26 932 l 472 932 l 829 282 l 829 729 q 814 796 829 782 q 743 810 798 810 l 690 810 l 690 932 l 1116 932 l 1116 810 l 1072 810 q 1002 796 1017 810 q 986 729 986 782 l 986 0 l 700 0 l 318 693 l 318 203 q 334 136 318 150 q 404 122 349 122 l 457 122 l 457 0 l 26 0 l 26 122 l 75 122 q 146 136 130 122 q 161 203 161 150 l 161 729 z "},"O":{"ha":1137,"x_min":46,"x_max":1092,"o":"m 349 465 q 401 187 349 275 q 570 100 454 100 q 737 187 684 100 q 790 465 790 275 q 737 743 790 656 q 570 831 684 831 q 401 743 454 831 q 349 465 349 656 m 46 465 q 185 828 46 696 q 570 960 325 960 q 952 828 813 960 q 1092 465 1092 696 q 953 103 1092 235 q 570 -28 814 -28 q 185 104 325 -28 q 46 465 46 235 z "},"P":{"ha":1015,"x_min":26,"x_max":970,"o":"m 424 529 l 510 529 q 654 562 613 529 q 696 675 696 595 q 652 778 696 747 q 510 810 609 810 l 424 810 l 424 529 m 602 932 q 882 868 793 932 q 970 664 970 804 q 947 556 970 606 q 880 472 924 507 q 775 423 838 438 q 602 408 713 408 l 424 408 l 424 203 q 439 136 424 150 q 510 122 454 122 l 576 122 l 576 0 l 26 0 l 26 122 l 78 122 q 148 136 132 122 q 163 203 163 149 l 163 729 q 148 797 163 783 q 78 810 132 810 l 26 810 l 26 932 l 602 932 z "},"Q":{"ha":1210,"x_min":46,"x_max":1210,"o":"m 366 277 q 431 400 384 360 q 558 440 479 440 q 670 417 612 440 q 791 345 727 393 q 796 402 794 372 q 798 465 798 432 q 742 742 798 654 q 570 831 686 831 q 401 743 458 831 q 345 482 345 655 q 350 390 345 441 q 366 277 355 339 m 722 151 q 616 248 667 215 q 518 281 564 281 q 451 256 476 281 q 425 192 425 232 q 463 120 425 148 q 561 92 500 92 q 643 106 603 92 q 722 151 683 121 m 994 170 q 1025 139 1009 149 q 1057 129 1040 129 q 1102 155 1088 129 q 1118 245 1116 180 l 1210 245 q 1159 15 1208 94 q 1019 -64 1111 -64 q 936 -41 977 -64 q 842 36 895 -18 q 695 -12 768 4 q 547 -28 622 -28 q 183 107 320 -28 q 46 465 46 241 q 185 828 46 696 q 570 960 325 960 q 951 830 811 960 q 1092 478 1092 700 q 1068 321 1092 397 q 994 170 1044 245 z "},"R":{"ha":1116,"x_min":26,"x_max":1108,"o":"m 424 547 l 522 547 q 666 575 628 547 q 704 673 704 602 q 666 779 704 748 q 533 810 628 810 l 424 810 l 424 547 m 424 203 q 439 136 424 150 q 510 122 454 122 l 559 122 l 559 0 l 26 0 l 26 122 l 78 122 q 148 136 132 122 q 163 203 163 149 l 163 729 q 148 797 163 783 q 78 810 132 810 l 26 810 l 26 932 l 639 932 q 892 874 809 932 q 975 700 975 817 q 920 564 975 618 q 761 490 865 510 q 888 432 850 475 q 926 302 926 388 l 926 212 q 935 133 926 154 q 966 113 944 113 q 1003 143 993 113 q 1014 258 1014 174 l 1107 258 q 1107 240 1107 252 q 1108 222 1108 228 q 1056 33 1108 94 q 892 -28 1003 -28 q 720 30 774 -28 q 665 211 665 87 l 665 300 q 641 401 665 378 q 538 425 616 425 l 424 425 l 424 203 z "},"S":{"ha":929,"x_min":43,"x_max":895,"o":"m 171 -12 l 58 -12 l 58 354 l 183 354 q 279 175 200 242 q 472 109 357 109 q 595 138 551 109 q 640 220 640 168 q 473 339 640 300 q 432 349 446 345 q 230 406 286 383 q 138 457 174 428 q 67 545 91 494 q 43 657 43 595 q 142 876 43 798 q 422 954 241 954 q 582 935 513 954 q 703 876 652 916 l 730 942 l 846 942 l 846 602 l 718 602 q 633 763 706 705 q 443 822 559 822 q 332 793 373 822 q 292 714 292 764 q 475 604 292 643 q 586 579 545 589 q 820 467 746 540 q 895 275 895 393 q 790 54 895 136 q 509 -28 686 -28 q 342 -5 423 -28 q 208 56 262 18 l 171 -12 z "},"T":{"ha":964,"x_min":29,"x_max":936,"o":"m 936 932 l 936 572 l 810 572 q 765 750 810 692 q 625 807 720 807 l 611 807 l 611 215 q 616 152 611 167 q 633 132 621 136 q 672 123 648 126 q 758 119 696 121 l 758 0 l 205 0 l 205 119 q 280 122 249 119 q 332 132 312 125 q 349 152 345 136 q 354 214 354 167 l 354 232 l 354 807 l 340 807 q 200 749 245 807 q 154 572 154 692 l 29 572 l 29 932 l 936 932 z "},"U":{"ha":1071,"x_min":26,"x_max":1044,"o":"m 26 814 l 26 932 l 554 932 l 554 814 q 535 815 545 814 q 507 815 525 815 q 431 794 450 815 q 412 677 412 773 l 412 304 q 449 154 412 198 q 572 110 486 110 q 720 152 675 110 q 764 293 764 194 l 764 671 q 744 790 764 766 q 665 815 725 815 q 643 815 651 815 q 629 814 635 814 l 629 932 l 1044 932 l 1044 814 q 964 809 991 814 q 926 791 936 804 q 918 764 920 785 q 916 669 916 743 l 916 275 q 816 48 916 126 q 525 -29 716 -29 q 253 48 350 -29 q 155 264 155 125 l 155 673 q 137 788 155 760 q 66 815 118 815 q 43 815 52 815 q 26 814 34 814 z "},"V":{"ha":999,"x_min":-9,"x_max":1003,"o":"m 628 0 l 368 0 l 132 703 q 81 792 109 772 q -9 814 53 812 l -9 932 l 511 932 l 511 814 q 489 815 500 814 q 457 815 477 815 q 396 805 413 815 q 379 771 379 795 q 383 745 379 762 q 400 692 387 729 l 547 237 l 705 714 q 719 758 716 747 q 722 777 722 770 q 702 806 722 796 q 642 815 682 815 q 615 815 625 815 q 599 814 606 814 l 599 932 l 1003 932 l 1002 814 q 907 785 939 813 q 852 676 876 758 l 628 0 z "},"W":{"ha":1354,"x_min":9,"x_max":1344,"o":"m 314 0 l 132 659 q 81 783 105 757 q 9 814 56 808 l 9 932 l 429 932 l 429 814 l 422 814 q 367 804 386 814 q 349 777 349 795 q 352 753 349 768 q 364 708 355 737 l 492 235 l 619 647 q 574 780 601 746 q 492 814 547 814 l 492 932 l 928 932 l 928 814 q 915 815 922 814 q 896 815 908 815 q 847 805 860 815 q 833 768 833 795 q 835 751 833 761 q 839 730 836 741 l 962 235 l 1092 726 q 1098 751 1096 741 q 1100 768 1100 762 q 1079 804 1100 793 q 1003 814 1058 814 l 1003 932 l 1344 932 l 1344 814 q 1273 789 1298 812 q 1232 705 1248 766 l 1046 0 l 798 0 l 686 396 l 572 0 l 314 0 z "},"X":{"ha":1061,"x_min":18,"x_max":1043,"o":"m 18 0 l 18 119 l 37 119 q 118 136 86 119 q 184 196 150 152 l 389 450 l 171 741 q 112 797 142 780 q 41 814 81 813 l 40 932 l 532 932 l 532 814 q 520 814 528 814 q 510 815 513 815 q 462 807 479 815 q 446 783 446 799 q 449 766 446 775 q 464 742 453 758 l 558 610 l 668 741 q 685 763 680 754 q 689 781 689 771 q 670 805 689 797 q 612 814 650 814 l 603 814 l 603 932 l 1011 932 l 1011 814 l 1006 814 q 925 798 958 814 q 860 743 892 782 l 663 503 l 886 201 q 949 134 922 152 q 1013 117 977 117 q 1039 119 1021 117 q 1043 119 1042 119 l 1043 0 l 522 0 l 522 119 l 538 119 q 600 127 581 119 q 618 154 618 136 q 599 194 618 171 q 590 205 593 200 l 490 340 l 385 208 q 362 173 368 186 q 357 149 357 161 q 373 126 357 134 q 421 118 390 118 q 438 118 432 118 q 448 119 444 119 l 449 0 l 18 0 z "},"Y":{"ha":1083,"x_min":32,"x_max":1044,"o":"m 673 214 q 688 136 673 153 q 760 119 703 119 l 825 119 l 825 0 l 262 0 l 262 119 l 328 119 q 400 137 385 119 q 415 214 415 154 l 415 385 l 211 704 q 132 789 171 767 q 33 814 94 812 l 32 932 l 566 932 l 566 814 l 521 814 q 477 805 492 814 q 463 779 463 797 q 469 757 463 771 q 494 715 476 743 l 603 547 l 729 737 q 742 762 737 749 q 746 785 746 774 q 728 807 746 800 q 672 814 711 814 l 650 814 l 650 932 l 1044 932 l 1044 814 l 1040 814 q 955 793 988 814 q 878 704 921 773 l 673 385 l 673 214 z "},"Z":{"ha":903,"x_min":32,"x_max":871,"o":"m 32 0 l 32 127 l 559 807 l 407 807 q 236 758 285 807 q 180 579 188 709 l 58 579 l 58 932 l 871 932 l 871 798 l 338 119 l 504 119 q 677 175 627 119 q 733 379 727 230 l 871 379 l 871 0 l 32 0 z "},"[":{"ha":562,"x_min":113,"x_max":504,"o":"m 504 -254 l 113 -254 l 113 932 l 504 932 l 504 810 l 345 810 l 345 -129 l 504 -129 l 504 -254 z "},"\\":{"ha":392,"x_min":-40,"x_max":433,"o":"m -40 960 l 75 960 l 433 -129 l 319 -129 l -40 960 z "},"]":{"ha":562,"x_min":58,"x_max":450,"o":"m 58 -254 l 58 -129 l 218 -129 l 218 810 l 58 810 l 58 932 l 450 932 l 450 -254 l 58 -254 z "},"^":{"ha":1389,"x_min":279,"x_max":1107,"o":"m 606 991 l 782 991 l 1107 608 l 1025 608 l 693 844 l 361 608 l 279 608 l 606 991 z "},"_":{"ha":694,"x_min":0,"x_max":694,"o":"m 0 -165 l 694 -165 l 694 -328 l 0 -328 l 0 -165 z "},"`":{"ha":694,"x_min":110,"x_max":500,"o":"m 500 747 l 418 747 l 183 864 q 126 904 143 884 q 110 950 110 924 q 132 1006 110 983 q 187 1028 154 1028 q 239 1013 214 1028 q 300 960 264 998 l 500 747 z "},"a":{"ha":856,"x_min":41,"x_max":839,"o":"m 479 77 q 379 0 435 25 q 252 -25 322 -25 q 98 26 155 -25 q 41 163 41 77 q 87 284 41 242 q 279 358 134 327 q 434 410 403 385 q 465 485 465 435 q 427 561 465 532 q 325 590 389 590 q 264 584 290 590 q 220 563 239 577 q 279 538 256 560 q 301 485 301 517 q 271 420 301 446 q 192 395 240 395 q 105 424 138 395 q 72 500 72 453 q 155 632 72 585 q 387 679 238 679 q 520 666 460 679 q 614 629 580 652 q 669 569 653 602 q 685 456 685 535 l 685 437 l 685 184 q 693 137 685 153 q 721 122 702 122 q 748 136 740 122 q 755 184 755 151 l 755 241 l 839 241 l 839 178 q 793 24 839 73 q 647 -25 747 -25 q 539 1 582 -25 q 479 77 497 26 m 461 323 q 389 288 435 310 q 281 189 281 235 q 304 136 281 156 q 364 115 327 115 q 435 144 410 115 q 461 227 461 174 l 461 323 z "},"b":{"ha":854,"x_min":0,"x_max":804,"o":"m 335 323 q 363 155 335 212 q 446 97 391 97 q 528 153 501 97 q 554 323 554 208 q 528 495 554 441 q 446 550 502 550 q 362 495 389 550 q 335 323 335 440 m 318 78 l 257 -3 l 107 -3 l 107 754 q 94 807 107 794 q 41 819 81 819 l 0 819 l 0 932 l 335 932 l 335 579 q 428 653 377 629 q 541 677 479 677 q 732 582 661 677 q 804 323 804 486 q 734 64 804 153 q 532 -25 665 -25 q 416 0 468 -25 q 318 78 363 25 z "},"c":{"ha":697,"x_min":32,"x_max":667,"o":"m 515 231 l 661 231 q 580 42 654 109 q 374 -24 505 -24 q 121 69 211 -24 q 32 329 32 161 q 125 586 32 492 q 378 681 218 681 q 588 618 509 681 q 667 454 667 556 q 629 351 667 389 q 526 313 591 313 q 443 342 474 313 q 411 422 411 372 q 439 498 411 471 q 515 525 467 525 l 518 525 q 475 554 498 545 q 425 564 453 564 q 314 507 351 564 q 277 336 277 450 q 308 161 277 218 q 404 104 339 104 q 484 136 456 104 q 515 231 512 168 z "},"d":{"ha":861,"x_min":41,"x_max":840,"o":"m 511 754 q 498 808 511 796 q 446 819 484 819 l 400 819 l 400 932 l 743 932 l 743 175 q 756 122 743 135 q 808 110 768 110 l 840 110 l 840 0 l 521 0 l 521 89 q 432 2 481 30 q 317 -25 382 -25 q 112 64 182 -25 q 41 323 41 153 q 114 582 41 486 q 307 677 186 677 q 418 653 368 677 q 511 579 469 629 l 511 754 m 293 323 q 321 154 293 212 q 403 97 349 97 q 485 153 458 97 q 511 323 511 208 q 485 495 511 441 q 403 550 459 550 q 319 495 346 550 q 293 323 293 441 z "},"e":{"ha":770,"x_min":39,"x_max":733,"o":"m 285 412 l 498 411 l 498 416 q 471 521 498 486 q 390 557 444 557 q 313 519 340 557 q 285 412 286 482 m 557 222 l 722 222 q 607 38 691 100 q 390 -24 524 -24 q 135 71 232 -24 q 39 321 39 166 q 132 581 39 486 q 385 676 225 676 q 641 583 549 676 q 733 323 733 490 l 733 298 l 282 298 l 282 288 q 316 152 282 197 q 416 107 349 107 q 514 137 478 107 q 557 222 551 167 z "},"f":{"ha":528,"x_min":32,"x_max":629,"o":"m 32 0 l 32 118 l 65 118 q 121 132 107 118 q 135 216 135 146 l 135 541 l 32 541 l 32 656 l 135 656 l 135 693 q 144 804 135 767 q 175 868 153 842 q 269 933 209 909 q 401 957 329 957 q 567 914 504 957 q 629 803 629 871 q 602 727 629 756 q 529 699 574 699 q 461 724 488 699 q 435 787 435 749 q 447 827 435 810 q 486 857 460 844 q 462 860 473 859 q 441 861 451 861 q 383 837 399 861 q 367 745 367 812 l 367 656 l 486 656 l 486 541 l 367 541 l 367 216 q 380 133 367 148 q 437 118 393 118 l 486 118 l 486 0 l 32 0 z "},"g":{"ha":895,"x_min":43,"x_max":901,"o":"m 380 245 q 441 286 423 245 q 460 425 460 326 q 442 554 460 516 q 382 591 424 591 q 321 551 340 591 q 302 412 302 510 q 321 286 302 327 q 380 245 340 245 m 212 -150 q 264 -192 212 -178 q 415 -205 315 -205 q 580 -192 530 -205 q 629 -146 629 -178 q 587 -105 629 -117 q 429 -93 545 -93 q 256 -105 300 -93 q 212 -150 212 -118 m 163 218 q 100 311 120 262 q 79 414 79 359 q 161 610 79 540 q 390 681 243 681 q 502 665 451 681 q 599 616 553 649 q 672 665 635 649 q 747 681 709 681 q 858 642 815 681 q 901 542 901 603 q 876 470 901 497 q 808 443 850 443 q 744 466 770 443 q 718 521 718 489 q 727 559 718 541 q 754 595 736 577 q 739 607 747 603 q 722 611 730 611 q 686 600 706 611 q 642 566 665 588 q 676 498 665 535 q 688 416 688 460 q 602 225 688 296 q 370 154 515 154 q 300 160 336 154 q 229 179 265 167 q 208 161 215 171 q 201 140 201 152 q 237 101 201 112 q 403 90 273 90 q 478 91 431 90 q 546 92 526 92 q 732 46 669 92 q 794 -89 794 1 q 701 -252 794 -202 q 390 -302 608 -302 q 129 -269 214 -302 q 43 -165 43 -235 q 70 -97 43 -125 q 153 -56 98 -70 q 78 7 102 -28 q 54 90 54 43 q 81 162 54 131 q 163 218 108 194 z "},"h":{"ha":920,"x_min":29,"x_max":897,"o":"m 29 0 l 29 113 l 62 113 q 115 125 102 113 q 127 178 127 138 l 127 754 q 115 807 127 794 q 62 819 102 819 l 29 819 l 29 932 l 350 932 l 350 561 q 457 646 399 618 q 581 673 514 673 q 750 619 700 673 q 800 431 800 565 l 800 178 q 813 125 800 138 q 865 113 825 113 l 897 113 l 897 0 l 488 0 l 488 113 l 503 113 q 555 125 543 113 q 568 178 568 138 l 568 431 q 544 519 568 490 q 472 549 520 549 q 387 508 414 549 q 359 378 359 467 l 359 178 q 372 125 359 138 q 425 113 385 113 l 440 113 l 440 0 l 29 0 z "},"i":{"ha":503,"x_min":33,"x_max":472,"o":"m 140 458 l 140 467 q 129 530 140 519 q 78 541 117 541 l 33 541 l 33 656 l 375 656 l 375 178 q 387 124 375 136 q 437 113 399 113 l 472 113 l 472 0 l 33 0 l 33 113 l 75 113 q 128 124 115 113 q 140 178 140 136 l 140 458 m 129 825 q 163 906 129 873 q 244 940 197 940 q 326 906 292 940 q 359 825 359 873 q 326 744 359 777 q 244 710 292 710 q 162 743 195 710 q 129 825 129 776 z "},"j":{"ha":484,"x_min":-94,"x_max":392,"o":"m 153 825 q 186 906 153 873 q 268 940 220 940 q 350 906 316 940 q 383 825 383 873 q 350 744 383 777 q 268 710 316 710 q 186 743 219 710 q 153 825 153 776 m 392 656 l 392 -56 q 382 -155 392 -120 q 351 -218 373 -189 q 261 -283 319 -262 q 118 -304 204 -304 q -35 -262 24 -304 q -94 -154 -94 -220 q -63 -78 -94 -108 q 14 -47 -33 -47 q 77 -73 51 -47 q 103 -136 103 -99 q 93 -172 103 -155 q 61 -203 83 -188 q 89 -211 77 -209 q 109 -214 100 -214 q 150 -193 138 -214 q 161 -106 161 -172 l 161 458 q 149 527 161 513 q 97 541 136 541 l 56 541 l 56 656 l 392 656 z "},"k":{"ha":926,"x_min":29,"x_max":903,"o":"m 357 932 l 357 358 l 544 508 q 553 517 550 512 q 555 528 555 522 q 546 539 555 536 q 517 543 537 543 q 475 541 508 543 q 453 541 460 541 l 453 656 l 856 656 l 855 541 q 846 542 851 541 q 831 542 841 542 q 774 532 799 542 q 722 500 750 523 l 636 429 l 793 167 q 828 126 808 139 q 880 114 849 114 q 894 114 889 114 q 903 115 899 115 l 903 0 l 496 0 l 496 115 q 550 119 541 115 q 559 135 559 123 q 548 167 559 146 l 547 168 l 471 300 l 357 208 l 357 178 q 367 126 357 138 q 407 114 377 114 q 415 115 410 114 q 425 115 421 115 l 425 0 l 29 0 l 29 115 l 60 115 q 114 127 104 115 q 125 178 125 140 l 125 737 q 113 808 125 797 q 62 819 102 819 l 29 819 l 29 932 l 357 932 z "},"l":{"ha":484,"x_min":21,"x_max":458,"o":"m 358 932 l 358 178 q 370 123 358 134 q 421 113 382 113 l 458 113 l 458 0 l 21 0 l 21 113 l 58 113 q 111 124 98 113 q 123 178 123 136 l 123 737 q 113 806 123 792 q 61 819 102 819 l 21 819 l 21 932 l 358 932 z "},"m":{"ha":1315,"x_min":29,"x_max":1293,"o":"m 29 0 l 29 113 l 65 113 q 118 125 105 113 q 131 178 131 138 l 131 478 q 118 531 131 518 q 65 543 105 543 l 29 543 l 29 656 l 351 656 l 351 564 q 447 648 395 622 q 572 673 498 673 q 694 647 646 673 q 764 568 741 621 q 864 649 810 623 q 987 675 918 675 q 1141 616 1093 675 q 1190 431 1190 557 l 1190 178 q 1203 123 1190 134 q 1263 113 1217 113 l 1293 113 l 1293 0 l 893 0 l 893 113 l 899 113 q 946 127 933 113 q 960 178 960 141 l 960 431 q 940 520 960 492 q 876 549 920 549 q 802 511 828 549 q 777 401 777 473 l 777 186 q 789 124 777 136 q 840 113 802 113 l 840 0 l 479 0 l 479 113 q 532 126 517 113 q 546 178 546 140 l 546 431 q 526 520 546 492 q 463 549 506 549 q 389 510 414 549 q 364 396 364 471 l 364 178 q 376 123 364 134 q 428 113 389 113 l 428 0 l 29 0 z "},"n":{"ha":922,"x_min":29,"x_max":900,"o":"m 29 0 l 29 113 l 66 113 q 119 125 106 113 q 132 178 132 138 l 132 478 q 119 531 132 518 q 66 543 106 543 l 29 543 l 29 656 l 353 656 l 353 554 q 454 643 395 613 q 585 673 513 673 q 753 620 704 673 q 803 431 803 566 l 803 178 q 815 125 803 138 q 868 113 828 113 l 900 113 l 900 0 l 492 0 l 492 113 l 507 113 q 559 125 547 113 q 572 178 572 138 l 572 431 q 548 519 572 490 q 476 549 524 549 q 393 510 422 549 q 364 400 364 472 l 364 178 q 377 125 364 138 q 429 113 389 113 l 443 113 l 443 0 l 29 0 z "},"o":{"ha":829,"x_min":35,"x_max":794,"o":"m 285 328 q 314 146 285 196 q 414 96 342 96 q 514 145 486 96 q 543 328 543 195 q 514 511 543 460 q 414 561 486 561 q 314 511 342 561 q 285 328 285 460 m 35 328 q 136 586 35 492 q 414 681 237 681 q 692 586 591 681 q 794 328 794 492 q 692 70 794 164 q 414 -24 591 -24 q 136 70 237 -24 q 35 328 35 164 z "},"p":{"ha":863,"x_min":22,"x_max":821,"o":"m 351 330 q 378 159 351 214 q 461 104 404 104 q 544 159 517 104 q 570 330 570 214 q 543 502 570 446 q 461 557 516 557 q 379 500 407 557 q 351 330 351 443 m 119 -121 l 119 478 q 107 531 119 518 q 54 543 94 543 l 22 543 l 22 656 l 340 656 l 340 567 q 434 652 384 625 q 549 679 484 679 q 751 590 682 679 q 821 330 821 500 q 748 72 821 168 q 555 -24 676 -24 q 444 0 494 -24 q 351 74 393 24 l 351 -121 q 364 -174 351 -161 q 416 -186 377 -186 l 463 -186 l 463 -298 l 22 -298 l 22 -186 l 54 -186 q 107 -174 94 -186 q 119 -121 119 -161 z "},"q":{"ha":863,"x_min":43,"x_max":840,"o":"m 743 -121 q 756 -174 743 -161 q 808 -186 768 -186 l 840 -186 l 840 -298 l 400 -298 l 400 -186 l 447 -186 q 500 -174 487 -186 q 513 -121 513 -161 l 513 74 q 420 0 471 24 q 307 -24 369 -24 q 115 72 186 -24 q 43 330 43 168 q 112 590 43 501 q 314 679 182 679 q 428 652 378 679 q 522 567 478 625 l 522 656 l 840 656 l 840 543 l 808 543 q 756 531 768 543 q 743 478 743 518 l 743 -121 m 513 330 q 484 499 513 442 q 401 557 456 557 q 319 502 346 557 q 293 330 293 446 q 319 159 293 214 q 401 104 345 104 q 486 159 458 104 q 513 330 513 214 z "},"r":{"ha":701,"x_min":25,"x_max":679,"o":"m 25 0 l 25 113 l 66 113 q 119 125 106 113 q 132 178 132 138 l 132 478 q 119 531 132 518 q 66 543 106 543 l 25 543 l 25 656 l 353 656 l 353 590 q 432 653 389 632 q 519 675 474 675 q 636 633 593 675 q 679 522 679 592 q 645 425 679 462 q 555 389 611 389 q 483 417 512 389 q 454 488 454 446 q 472 541 454 519 q 522 572 490 563 q 500 581 509 578 q 482 583 490 583 q 397 528 431 583 q 364 386 364 473 l 364 178 q 377 125 364 138 q 429 113 389 113 l 485 113 l 485 0 l 25 0 z "},"s":{"ha":772,"x_min":52,"x_max":721,"o":"m 158 -7 l 60 -7 l 60 237 l 170 237 q 248 133 194 170 q 372 96 301 96 q 447 112 421 96 q 473 157 473 127 q 456 192 473 179 q 368 224 439 205 q 336 232 357 227 q 123 313 178 273 q 70 376 89 338 q 52 458 52 414 q 133 620 52 559 q 350 681 214 681 q 464 667 410 681 q 572 625 518 654 l 587 663 l 686 663 l 686 453 l 587 453 q 498 537 552 508 q 380 567 445 567 q 318 551 341 567 q 296 507 296 535 q 455 420 296 460 q 524 403 498 410 q 670 325 618 377 q 721 201 721 273 q 636 39 721 101 q 412 -24 551 -24 q 299 -8 355 -24 q 179 41 243 7 l 158 -7 z "},"t":{"ha":650,"x_min":35,"x_max":579,"o":"m 127 543 l 35 543 l 35 647 q 162 724 115 656 q 218 911 209 791 l 355 911 l 355 656 l 524 656 l 524 543 l 355 543 l 355 180 q 369 121 355 140 q 408 102 382 102 q 454 130 441 102 q 467 249 467 158 l 467 310 l 579 310 l 579 212 q 523 31 579 90 q 351 -28 467 -28 q 179 31 231 -28 q 127 233 127 90 l 127 543 z "},"u":{"ha":922,"x_min":22,"x_max":895,"o":"m 790 656 l 790 178 q 803 125 790 138 q 856 113 816 113 l 895 113 l 895 0 l 570 0 l 570 102 q 468 11 527 42 q 339 -20 410 -20 q 169 35 219 -20 q 119 224 119 90 l 119 478 q 107 531 119 518 q 54 543 94 543 l 22 543 l 22 656 l 351 656 l 351 224 q 375 136 351 165 q 447 107 399 107 q 531 146 503 107 q 559 265 559 186 l 559 478 q 547 531 559 518 q 494 543 534 543 l 479 543 l 479 656 l 790 656 z "},"v":{"ha":814,"x_min":14,"x_max":802,"o":"m 272 0 l 127 441 q 87 520 109 500 q 29 541 66 541 l 14 541 l 14 656 l 428 656 l 428 541 l 403 541 q 348 534 357 541 q 338 510 338 528 q 340 493 338 504 q 347 469 342 482 l 450 155 l 555 460 q 565 490 562 476 q 568 511 568 503 q 555 533 568 526 q 514 541 542 541 l 486 541 l 486 656 l 802 656 l 802 542 l 775 542 q 723 527 741 542 q 684 449 706 511 l 525 0 l 272 0 z "},"w":{"ha":1206,"x_min":12,"x_max":1193,"o":"m 252 0 l 131 433 q 86 527 111 507 q 13 547 62 547 l 12 656 l 399 656 l 399 547 l 371 547 q 339 539 350 547 q 328 517 328 532 q 331 491 328 509 q 340 453 334 473 l 424 158 l 513 446 q 525 492 522 475 q 529 521 529 509 q 520 542 529 536 q 482 547 511 547 l 457 547 l 457 656 l 838 656 l 838 547 l 812 547 q 773 538 787 547 q 760 514 760 530 q 763 492 760 506 q 771 461 766 478 l 860 157 l 954 471 q 963 499 960 489 q 965 517 965 510 q 956 542 965 534 q 922 549 946 549 q 907 548 913 549 q 897 547 902 548 l 897 656 l 1193 656 l 1193 547 q 1117 530 1141 547 q 1076 458 1093 513 l 939 0 l 701 0 l 599 334 l 497 0 l 252 0 z "},"x":{"ha":908,"x_min":20,"x_max":889,"o":"m 396 236 l 330 178 q 302 149 309 159 q 294 131 294 139 q 307 116 294 121 q 342 111 319 111 l 355 111 l 355 0 l 20 0 l 20 115 q 29 115 23 115 q 39 114 35 114 q 165 177 96 114 q 177 188 172 184 l 322 322 l 178 479 q 119 526 149 511 q 47 547 89 542 l 47 656 l 482 656 l 482 550 q 473 551 479 550 q 465 551 467 551 q 436 547 446 551 q 425 533 425 542 q 439 505 425 522 q 444 499 443 500 l 504 427 l 581 503 q 596 522 591 515 q 600 536 600 530 q 592 547 600 543 q 571 551 585 551 q 562 551 565 551 q 555 551 559 551 l 555 656 l 875 656 l 875 547 l 868 547 q 802 531 834 547 q 717 468 769 515 l 581 347 q 757 157 701 201 q 863 113 813 113 q 873 113 868 113 q 888 115 878 113 l 889 0 l 415 0 l 415 111 q 422 111 417 111 q 429 110 427 110 q 462 117 450 110 q 475 136 475 125 q 471 148 475 141 q 463 161 468 155 l 396 236 z "},"y":{"ha":827,"x_min":18,"x_max":810,"o":"m 354 -47 l 139 463 q 102 526 118 511 q 61 541 85 541 l 24 541 l 24 656 l 444 656 l 444 541 l 412 541 q 370 535 384 541 q 355 518 355 529 q 371 469 355 505 l 372 467 l 473 233 l 562 458 l 566 465 q 582 519 582 507 q 570 535 582 530 q 532 541 558 541 l 500 541 l 500 656 l 810 656 l 810 541 q 740 525 762 539 q 696 457 718 511 l 485 -56 q 367 -248 428 -194 q 215 -302 307 -302 q 73 -252 128 -302 q 18 -122 18 -202 q 53 -27 18 -63 q 144 8 87 8 q 224 -18 195 8 q 254 -87 254 -44 q 228 -156 254 -131 q 157 -182 202 -182 q 143 -181 148 -182 q 134 -180 138 -181 q 164 -206 149 -198 q 196 -214 180 -214 q 287 -171 246 -214 q 354 -47 328 -128 z "},"z":{"ha":685,"x_min":32,"x_max":653,"o":"m 32 0 l 32 126 l 393 542 l 313 542 q 190 514 214 542 q 165 390 165 486 l 165 379 l 52 379 l 52 656 l 653 656 l 653 529 l 300 113 l 393 113 q 508 142 477 113 q 539 250 539 172 q 539 274 539 266 q 538 290 538 283 l 653 290 l 653 0 l 32 0 z "},"{":{"ha":694,"x_min":121,"x_max":578,"o":"m 578 1028 l 578 983 q 475 947 503 981 q 447 806 447 912 l 447 717 q 413 508 447 563 q 288 431 378 452 q 413 354 378 408 q 447 146 447 299 l 447 57 q 475 -85 447 -50 q 578 -123 503 -120 l 578 -165 l 570 -165 q 356 -115 414 -165 q 298 69 298 -65 l 298 196 q 261 352 298 310 q 121 404 224 394 l 121 458 q 261 510 224 468 q 298 667 298 553 l 298 793 q 356 978 298 928 q 570 1028 414 1028 l 578 1028 z "},"|":{"ha":694,"x_min":267,"x_max":429,"o":"m 267 1061 l 429 1061 l 429 -328 l 267 -328 l 267 1061 z "},"}":{"ha":694,"x_min":117,"x_max":574,"o":"m 117 1028 l 125 1028 q 338 978 280 1028 q 396 793 396 928 l 396 667 q 433 510 396 553 q 574 458 470 468 l 574 404 q 433 352 470 394 q 396 196 396 310 l 396 69 q 338 -115 396 -65 q 125 -165 280 -165 l 117 -165 l 117 -123 q 220 -85 192 -120 q 248 57 248 -50 l 248 146 q 282 354 248 299 q 407 431 316 408 q 282 509 316 454 q 248 717 248 564 l 248 806 q 220 947 248 912 q 117 983 192 981 l 117 1028 z "},"~":{"ha":1157,"x_min":121,"x_max":1038,"o":"m 1038 555 l 1038 383 q 906 313 969 336 q 782 290 843 290 q 722 295 751 290 q 665 310 692 300 q 640 319 656 313 q 380 379 467 379 q 261 354 323 379 q 121 272 199 328 l 121 444 q 261 518 197 494 q 383 542 326 542 q 469 534 426 542 q 584 503 512 526 q 618 491 595 499 q 786 453 726 453 q 904 477 843 453 q 1038 555 964 502 z "},"Ä":{"ha":994,"x_min":-18,"x_max":1013,"o":"m 541 421 l 447 715 l 351 421 l 541 421 m -18 0 l -18 122 l 16 122 q 82 137 61 122 q 123 212 103 151 l 363 932 l 640 932 l 869 208 q 906 139 887 155 q 965 122 926 122 l 1013 122 l 1013 0 l 498 0 l 498 122 l 538 122 q 605 129 588 122 q 623 155 623 136 q 618 175 622 161 q 615 185 616 182 l 579 300 l 311 300 l 276 193 q 271 173 273 183 q 269 155 269 163 q 283 129 269 136 q 345 122 298 122 l 390 122 l 390 0 l -18 0 m 547 1171 q 580 1247 547 1214 q 656 1280 612 1280 q 733 1248 701 1280 q 766 1171 766 1216 q 734 1093 766 1124 q 656 1061 703 1061 q 578 1093 610 1061 q 547 1171 547 1124 m 250 1171 q 283 1247 250 1214 q 360 1280 317 1280 q 437 1248 406 1280 q 469 1171 469 1217 q 438 1092 469 1123 q 360 1061 407 1061 q 282 1093 314 1061 q 250 1171 250 1124 z "},"Å":{"ha":994,"x_min":-18,"x_max":1013,"o":"m 418 1150 q 441 1092 418 1115 q 498 1069 464 1069 q 555 1093 532 1069 q 579 1150 579 1117 q 555 1208 579 1183 q 498 1232 531 1232 q 441 1208 465 1232 q 418 1150 418 1183 m 311 1150 q 366 1283 311 1228 q 498 1337 420 1337 q 631 1283 576 1337 q 686 1150 686 1228 q 632 1018 686 1072 q 498 964 577 964 q 366 1018 420 964 q 311 1150 311 1072 m 541 421 l 447 715 l 351 421 l 541 421 m -18 0 l -18 122 l 16 122 q 81 137 60 122 q 123 212 102 151 l 363 920 l 640 920 l 869 208 q 906 139 887 155 q 965 122 926 122 l 1013 122 l 1013 0 l 498 0 l 498 122 l 538 122 q 605 129 588 122 q 623 155 623 136 q 618 175 622 161 q 615 185 616 182 l 579 300 l 311 300 l 276 193 q 271 173 273 183 q 269 155 269 163 q 283 129 269 136 q 345 122 298 122 l 390 122 l 390 0 l -18 0 z "},"Ç":{"ha":1022,"x_min":46,"x_max":957,"o":"m 810 361 l 957 361 q 847 70 951 168 q 542 -28 743 -28 q 181 106 315 -28 q 46 467 46 241 q 81 668 46 579 q 187 828 115 757 q 339 928 256 896 q 530 960 422 960 q 673 938 606 960 q 802 869 740 916 l 829 943 l 957 943 l 957 564 l 821 564 q 750 755 812 686 q 586 823 688 823 q 411 730 474 823 q 349 468 349 637 q 411 204 349 296 q 587 111 473 111 q 744 177 685 111 q 810 361 802 243 m 300 -262 l 335 -189 q 426 -230 382 -216 q 509 -244 469 -244 q 551 -230 535 -244 q 567 -191 567 -215 q 550 -147 567 -161 q 500 -132 533 -132 q 465 -136 490 -132 q 457 -138 460 -137 l 457 0 l 519 0 l 519 -74 q 544 -69 532 -71 q 570 -68 556 -68 q 666 -101 631 -68 q 701 -192 701 -134 q 657 -291 701 -254 q 539 -328 614 -328 q 439 -313 495 -328 q 300 -262 384 -298 z "},"É":{"ha":1039,"x_min":26,"x_max":947,"o":"m 26 0 l 26 122 l 78 122 q 148 136 132 122 q 163 203 163 149 l 163 729 q 148 797 163 783 q 78 810 132 810 l 26 810 l 26 932 l 947 932 l 947 576 l 825 576 q 798 700 814 658 q 757 765 783 741 q 690 800 731 789 q 545 810 650 810 l 424 810 l 424 545 l 447 545 q 550 574 524 545 q 576 692 576 603 l 693 692 l 693 267 l 576 267 q 551 393 574 364 q 447 422 527 422 l 424 422 l 424 122 l 549 122 q 756 175 702 122 q 825 385 810 228 l 947 385 l 947 0 l 26 0 m 360 1027 l 560 1239 q 621 1293 597 1278 q 673 1308 646 1308 q 728 1285 706 1308 q 750 1230 750 1263 q 733 1183 750 1204 q 677 1143 715 1163 l 442 1027 l 360 1027 z "},"Ñ":{"ha":1136,"x_min":26,"x_max":1116,"o":"m 161 729 q 146 796 161 782 q 75 810 130 810 l 26 810 l 26 932 l 472 932 l 829 282 l 829 729 q 814 796 829 782 q 743 810 798 810 l 690 810 l 690 932 l 1116 932 l 1116 810 l 1072 810 q 1002 796 1017 810 q 986 729 986 782 l 986 0 l 700 0 l 318 693 l 318 203 q 334 136 318 150 q 404 122 349 122 l 457 122 l 457 0 l 26 0 l 26 122 l 75 122 q 146 136 130 122 q 161 203 161 150 l 161 729 m 408 1048 l 349 1048 q 408 1191 366 1143 q 515 1239 450 1239 q 542 1237 528 1239 q 572 1231 556 1235 l 659 1208 q 680 1204 673 1205 q 692 1203 687 1203 q 733 1218 718 1203 q 760 1270 749 1234 l 819 1270 q 759 1127 801 1175 q 655 1078 718 1078 q 633 1080 645 1078 q 605 1085 621 1082 l 522 1109 q 496 1114 506 1112 q 480 1116 486 1116 q 434 1098 452 1116 q 408 1048 416 1081 z "},"Ö":{"ha":1137,"x_min":46,"x_max":1092,"o":"m 349 465 q 401 187 349 275 q 570 100 454 100 q 737 187 684 100 q 790 465 790 275 q 737 743 790 656 q 570 831 684 831 q 401 743 454 831 q 349 465 349 656 m 46 465 q 185 828 46 696 q 570 960 325 960 q 952 828 813 960 q 1092 465 1092 696 q 953 103 1092 235 q 570 -28 814 -28 q 185 104 325 -28 q 46 465 46 235 m 608 1171 q 641 1247 608 1214 q 717 1280 673 1280 q 794 1248 762 1280 q 827 1171 827 1216 q 795 1093 827 1124 q 717 1061 764 1061 q 640 1093 671 1061 q 608 1171 608 1124 m 311 1171 q 345 1247 311 1214 q 421 1280 378 1280 q 498 1248 467 1280 q 530 1171 530 1217 q 499 1092 530 1123 q 421 1061 468 1061 q 343 1093 375 1061 q 311 1171 311 1124 z "},"Ü":{"ha":1071,"x_min":26,"x_max":1044,"o":"m 26 814 l 26 932 l 554 932 l 554 814 q 535 815 545 814 q 507 815 525 815 q 431 794 450 815 q 412 677 412 773 l 412 304 q 449 154 412 198 q 572 110 486 110 q 720 152 675 110 q 764 293 764 194 l 764 671 q 744 790 764 766 q 665 815 725 815 q 643 815 651 815 q 629 814 635 814 l 629 932 l 1044 932 l 1044 814 q 964 809 991 814 q 926 791 936 804 q 918 764 920 785 q 916 669 916 743 l 916 275 q 816 48 916 126 q 525 -29 716 -29 q 253 48 350 -29 q 155 264 155 125 l 155 673 q 137 788 155 760 q 66 815 118 815 q 43 815 52 815 q 26 814 34 814 m 625 1171 q 657 1247 625 1214 q 733 1280 690 1280 q 811 1248 779 1280 q 843 1171 843 1216 q 812 1093 843 1124 q 733 1061 781 1061 q 656 1093 687 1061 q 625 1171 625 1124 m 328 1171 q 361 1247 328 1214 q 437 1280 394 1280 q 514 1248 483 1280 q 546 1171 546 1217 q 515 1092 546 1123 q 437 1061 484 1061 q 359 1093 391 1061 q 328 1171 328 1124 z "},"á":{"ha":856,"x_min":41,"x_max":839,"o":"m 479 77 q 379 0 435 25 q 252 -25 322 -25 q 98 26 155 -25 q 41 163 41 77 q 87 284 41 242 q 279 358 134 327 q 434 410 403 385 q 465 485 465 435 q 427 561 465 532 q 325 590 389 590 q 264 584 290 590 q 220 563 239 577 q 279 538 256 560 q 301 485 301 517 q 271 420 301 446 q 192 395 240 395 q 105 424 138 395 q 72 500 72 453 q 155 632 72 585 q 387 679 238 679 q 520 666 460 679 q 614 629 580 652 q 669 569 653 602 q 685 456 685 535 l 685 437 l 685 184 q 693 137 685 153 q 721 122 702 122 q 748 136 740 122 q 755 184 755 151 l 755 241 l 839 241 l 839 178 q 793 24 839 73 q 647 -25 747 -25 q 539 1 582 -25 q 479 77 497 26 m 461 323 q 389 288 435 310 q 281 189 281 235 q 304 136 281 156 q 364 115 327 115 q 435 144 410 115 q 461 227 461 174 l 461 323 m 248 747 l 448 960 q 509 1014 484 999 q 560 1028 533 1028 q 615 1006 593 1028 q 637 950 637 983 q 620 904 637 924 q 564 864 603 884 l 330 747 l 248 747 z "},"à":{"ha":856,"x_min":41,"x_max":839,"o":"m 479 77 q 379 0 435 25 q 252 -25 322 -25 q 98 26 155 -25 q 41 163 41 77 q 87 284 41 242 q 279 358 134 327 q 434 410 403 385 q 465 485 465 435 q 427 561 465 532 q 325 590 389 590 q 264 584 290 590 q 220 563 239 577 q 279 538 256 560 q 301 485 301 517 q 271 420 301 446 q 192 395 240 395 q 105 424 138 395 q 72 500 72 453 q 155 632 72 585 q 387 679 238 679 q 520 666 460 679 q 614 629 580 652 q 669 569 653 602 q 685 456 685 535 l 685 437 l 685 184 q 693 137 685 153 q 721 122 702 122 q 748 136 740 122 q 755 184 755 151 l 755 241 l 839 241 l 839 178 q 793 24 839 73 q 647 -25 747 -25 q 539 1 582 -25 q 479 77 497 26 m 461 323 q 389 288 435 310 q 281 189 281 235 q 304 136 281 156 q 364 115 327 115 q 435 144 410 115 q 461 227 461 174 l 461 323 m 553 747 l 471 747 l 236 864 q 179 904 196 884 q 163 950 163 924 q 185 1006 163 983 q 240 1028 207 1028 q 292 1013 267 1028 q 353 960 317 998 l 553 747 z "},"â":{"ha":856,"x_min":41,"x_max":839,"o":"m 479 77 q 379 0 435 25 q 252 -25 322 -25 q 98 26 155 -25 q 41 163 41 77 q 87 284 41 242 q 279 358 134 327 q 434 410 403 385 q 465 485 465 435 q 427 561 465 532 q 325 590 389 590 q 264 584 290 590 q 220 563 239 577 q 279 538 256 560 q 301 485 301 517 q 271 420 301 446 q 192 395 240 395 q 105 424 138 395 q 72 500 72 453 q 155 632 72 585 q 387 679 238 679 q 520 666 460 679 q 614 629 580 652 q 669 569 653 602 q 685 456 685 535 l 685 437 l 685 184 q 693 137 685 153 q 721 122 702 122 q 748 136 740 122 q 755 184 755 151 l 755 241 l 839 241 l 839 178 q 793 24 839 73 q 647 -25 747 -25 q 539 1 582 -25 q 479 77 497 26 m 461 323 q 389 288 435 310 q 281 189 281 235 q 304 136 281 156 q 364 115 327 115 q 435 144 410 115 q 461 227 461 174 l 461 323 m 170 746 l 334 1013 l 467 1013 l 631 746 l 558 746 l 400 869 l 242 746 l 170 746 z "},"ä":{"ha":856,"x_min":41,"x_max":839,"o":"m 479 77 q 379 0 435 25 q 252 -25 322 -25 q 98 26 155 -25 q 41 163 41 77 q 87 284 41 242 q 279 358 134 327 q 434 410 403 385 q 465 485 465 435 q 427 561 465 532 q 325 590 389 590 q 264 584 290 590 q 220 563 239 577 q 279 538 256 560 q 301 485 301 517 q 271 420 301 446 q 192 395 240 395 q 105 424 138 395 q 72 500 72 453 q 155 632 72 585 q 387 679 238 679 q 520 666 460 679 q 614 629 580 652 q 669 569 653 602 q 685 456 685 535 l 685 437 l 685 184 q 693 137 685 153 q 721 122 702 122 q 748 136 740 122 q 755 184 755 151 l 755 241 l 839 241 l 839 178 q 793 24 839 73 q 647 -25 747 -25 q 539 1 582 -25 q 479 77 497 26 m 461 323 q 389 288 435 310 q 281 189 281 235 q 304 136 281 156 q 364 115 327 115 q 435 144 410 115 q 461 227 461 174 l 461 323 m 439 892 q 471 967 439 935 q 547 1000 504 1000 q 625 968 593 1000 q 657 892 657 937 q 626 813 657 844 q 547 782 595 782 q 470 813 501 782 q 439 892 439 845 m 142 892 q 175 967 142 935 q 252 1000 208 1000 q 329 969 297 1000 q 360 892 360 937 q 329 813 360 844 q 252 782 298 782 q 174 813 205 782 q 142 892 142 845 z "},"ã":{"ha":856,"x_min":41,"x_max":839,"o":"m 479 77 q 379 0 435 25 q 252 -25 322 -25 q 98 26 155 -25 q 41 163 41 77 q 87 284 41 242 q 279 358 134 327 q 434 410 403 385 q 465 485 465 435 q 427 561 465 532 q 325 590 389 590 q 264 584 290 590 q 220 563 239 577 q 279 538 256 560 q 301 485 301 517 q 271 420 301 446 q 192 395 240 395 q 105 424 138 395 q 72 500 72 453 q 155 632 72 585 q 387 679 238 679 q 520 666 460 679 q 614 629 580 652 q 669 569 653 602 q 685 456 685 535 l 685 437 l 685 184 q 693 137 685 153 q 721 122 702 122 q 748 136 740 122 q 755 184 755 151 l 755 241 l 839 241 l 839 178 q 793 24 839 73 q 647 -25 747 -25 q 539 1 582 -25 q 479 77 497 26 m 461 323 q 389 288 435 310 q 281 189 281 235 q 304 136 281 156 q 364 115 327 115 q 435 144 410 115 q 461 227 461 174 l 461 323 m 224 768 l 164 768 q 223 912 182 864 q 331 960 265 960 q 358 958 344 960 q 388 951 372 956 l 474 929 q 496 925 489 926 q 507 924 503 924 q 549 939 533 924 q 575 990 564 954 l 635 990 q 575 847 616 896 q 471 799 533 799 q 448 801 460 799 q 420 806 436 802 l 338 829 q 312 834 321 833 q 296 836 302 836 q 250 819 268 836 q 224 768 231 802 z "},"å":{"ha":856,"x_min":41,"x_max":839,"o":"m 311 917 q 335 856 311 880 q 396 832 359 832 q 456 857 431 832 q 481 917 481 881 q 456 977 481 951 q 396 1002 431 1002 q 336 977 360 1002 q 311 917 311 952 m 205 917 q 260 1052 205 997 q 396 1107 315 1107 q 532 1052 476 1107 q 587 917 587 997 q 532 781 587 836 q 396 725 476 725 q 261 781 316 725 q 205 917 205 836 m 479 77 q 379 0 435 25 q 252 -25 322 -25 q 98 26 155 -25 q 41 163 41 77 q 87 284 41 242 q 279 358 134 327 q 434 410 403 385 q 465 485 465 435 q 427 561 465 532 q 325 590 389 590 q 264 584 290 590 q 220 563 239 577 q 279 538 256 560 q 301 485 301 517 q 271 420 301 446 q 192 395 240 395 q 105 424 138 395 q 72 500 72 453 q 155 632 72 585 q 387 679 238 679 q 520 666 460 679 q 614 629 580 652 q 669 569 653 602 q 685 456 685 535 l 685 437 l 685 184 q 693 137 685 153 q 721 122 702 122 q 748 136 740 122 q 755 184 755 151 l 755 241 l 839 241 l 839 178 q 793 24 839 73 q 647 -25 747 -25 q 539 1 582 -25 q 479 77 497 26 m 461 323 q 389 288 435 310 q 281 189 281 235 q 304 136 281 156 q 364 115 327 115 q 435 144 410 115 q 461 227 461 174 l 461 323 z "},"ç":{"ha":697,"x_min":32,"x_max":667,"o":"m 515 231 l 661 231 q 580 42 654 109 q 374 -24 505 -24 q 121 69 211 -24 q 32 329 32 161 q 125 586 32 492 q 378 681 218 681 q 588 618 509 681 q 667 454 667 556 q 629 351 667 389 q 526 313 591 313 q 443 342 474 313 q 411 422 411 372 q 439 498 411 471 q 515 525 467 525 l 518 525 q 475 554 498 545 q 425 564 453 564 q 314 507 351 564 q 277 336 277 450 q 308 161 277 218 q 404 104 339 104 q 484 136 456 104 q 515 231 512 168 m 133 -262 l 168 -189 q 259 -230 215 -216 q 342 -244 302 -244 q 384 -230 368 -244 q 400 -191 400 -215 q 383 -147 400 -161 q 333 -132 366 -132 q 298 -136 323 -132 q 290 -138 293 -137 l 290 0 l 353 0 l 353 -74 q 377 -69 365 -71 q 403 -68 389 -68 q 499 -101 465 -68 q 534 -192 534 -134 q 491 -291 534 -254 q 372 -328 447 -328 q 273 -313 328 -328 q 133 -262 217 -298 z "},"é":{"ha":770,"x_min":39,"x_max":733,"o":"m 285 412 l 498 411 l 498 416 q 471 521 498 486 q 390 557 444 557 q 313 519 340 557 q 285 412 286 482 m 557 222 l 722 222 q 607 38 691 100 q 390 -24 524 -24 q 135 71 232 -24 q 39 321 39 166 q 132 581 39 486 q 385 676 225 676 q 641 583 549 676 q 733 323 733 490 l 733 298 l 282 298 l 282 288 q 316 152 282 197 q 416 107 349 107 q 514 137 478 107 q 557 222 551 167 m 232 747 l 432 960 q 493 1014 469 999 q 545 1028 517 1028 q 600 1006 578 1028 q 622 950 622 983 q 605 904 622 924 q 549 864 587 884 l 314 747 l 232 747 z "},"è":{"ha":770,"x_min":39,"x_max":733,"o":"m 285 412 l 498 411 l 498 416 q 471 521 498 486 q 390 557 444 557 q 313 519 340 557 q 285 412 286 482 m 557 222 l 722 222 q 607 38 691 100 q 390 -24 524 -24 q 135 71 232 -24 q 39 321 39 166 q 132 581 39 486 q 385 676 225 676 q 641 583 549 676 q 733 323 733 490 l 733 298 l 282 298 l 282 288 q 316 152 282 197 q 416 107 349 107 q 514 137 478 107 q 557 222 551 167 m 537 747 l 455 747 l 220 864 q 164 904 180 884 q 147 950 147 924 q 169 1006 147 983 q 224 1028 191 1028 q 276 1013 251 1028 q 337 960 302 998 l 537 747 z "},"ê":{"ha":770,"x_min":39,"x_max":733,"o":"m 285 412 l 498 411 l 498 416 q 471 521 498 486 q 390 557 444 557 q 313 519 340 557 q 285 412 286 482 m 557 222 l 722 222 q 607 38 691 100 q 390 -24 524 -24 q 135 71 232 -24 q 39 321 39 166 q 132 581 39 486 q 385 676 225 676 q 641 583 549 676 q 733 323 733 490 l 733 298 l 282 298 l 282 288 q 316 152 282 197 q 416 107 349 107 q 514 137 478 107 q 557 222 551 167 m 154 746 l 318 1013 l 451 1013 l 615 746 l 543 746 l 385 869 l 227 746 l 154 746 z "},"ë":{"ha":770,"x_min":39,"x_max":733,"o":"m 285 412 l 498 411 l 498 416 q 471 521 498 486 q 390 557 444 557 q 313 519 340 557 q 285 412 286 482 m 557 222 l 722 222 q 607 38 691 100 q 390 -24 524 -24 q 135 71 232 -24 q 39 321 39 166 q 132 581 39 486 q 385 676 225 676 q 641 583 549 676 q 733 323 733 490 l 733 298 l 282 298 l 282 288 q 316 152 282 197 q 416 107 349 107 q 514 137 478 107 q 557 222 551 167 m 423 892 q 456 967 423 935 q 532 1000 488 1000 q 609 968 577 1000 q 642 892 642 937 q 610 813 642 844 q 532 782 579 782 q 454 813 486 782 q 423 892 423 845 m 126 892 q 159 967 126 935 q 236 1000 193 1000 q 313 969 281 1000 q 345 892 345 937 q 314 813 345 844 q 236 782 283 782 q 158 813 190 782 q 126 892 126 845 z "},"í":{"ha":503,"x_min":33,"x_max":483,"o":"m 140 458 l 140 467 q 129 530 140 519 q 78 541 117 541 l 33 541 l 33 656 l 375 656 l 375 178 q 387 124 375 136 q 437 113 399 113 l 472 113 l 472 0 l 33 0 l 33 113 l 75 113 q 128 124 115 113 q 140 178 140 136 l 140 458 m 93 747 l 293 960 q 354 1014 330 999 q 406 1028 378 1028 q 461 1006 439 1028 q 483 950 483 983 q 466 904 483 924 q 410 864 448 884 l 175 747 l 93 747 z "},"ì":{"ha":503,"x_min":8,"x_max":472,"o":"m 140 458 l 140 467 q 129 530 140 519 q 78 541 117 541 l 33 541 l 33 656 l 375 656 l 375 178 q 387 124 375 136 q 437 113 399 113 l 472 113 l 472 0 l 33 0 l 33 113 l 75 113 q 128 124 115 113 q 140 178 140 136 l 140 458 m 398 747 l 316 747 l 81 864 q 25 904 41 884 q 8 950 8 924 q 30 1006 8 983 q 85 1028 52 1028 q 137 1013 112 1028 q 198 960 163 998 l 398 747 z "},"î":{"ha":503,"x_min":15,"x_max":476,"o":"m 140 458 l 140 467 q 129 530 140 519 q 78 541 117 541 l 33 541 l 33 656 l 375 656 l 375 178 q 387 124 375 136 q 437 113 399 113 l 472 113 l 472 0 l 33 0 l 33 113 l 75 113 q 128 124 115 113 q 140 178 140 136 l 140 458 m 15 746 l 179 1013 l 312 1013 l 476 746 l 404 746 l 245 869 l 87 746 l 15 746 z "},"ï":{"ha":503,"x_min":-13,"x_max":503,"o":"m 140 458 l 140 467 q 129 530 140 519 q 78 541 117 541 l 33 541 l 33 656 l 375 656 l 375 178 q 387 124 375 136 q 437 113 399 113 l 472 113 l 472 0 l 33 0 l 33 113 l 75 113 q 128 124 115 113 q 140 178 140 136 l 140 458 m 284 892 q 317 967 284 935 q 393 1000 349 1000 q 470 968 438 1000 q 503 892 503 937 q 471 813 503 844 q 393 782 440 782 q 315 813 347 782 q 284 892 284 845 m -13 892 q 20 967 -13 935 q 97 1000 54 1000 q 174 969 142 1000 q 205 892 205 937 q 175 813 205 844 q 97 782 144 782 q 19 813 51 782 q -13 892 -13 845 z "},"ñ":{"ha":922,"x_min":29,"x_max":900,"o":"m 29 0 l 29 113 l 66 113 q 119 125 106 113 q 132 178 132 138 l 132 478 q 119 531 132 518 q 66 543 106 543 l 29 543 l 29 656 l 353 656 l 353 554 q 454 643 395 613 q 585 673 513 673 q 753 620 704 673 q 803 431 803 566 l 803 178 q 815 125 803 138 q 868 113 828 113 l 900 113 l 900 0 l 492 0 l 492 113 l 507 113 q 559 125 547 113 q 572 178 572 138 l 572 431 q 548 519 572 490 q 476 549 524 549 q 393 510 422 549 q 364 400 364 472 l 364 178 q 377 125 364 138 q 429 113 389 113 l 443 113 l 443 0 l 29 0 m 285 768 l 225 768 q 284 912 243 864 q 392 960 326 960 q 419 958 405 960 q 449 951 433 956 l 535 929 q 557 925 550 926 q 568 924 564 924 q 610 939 594 924 q 636 990 625 954 l 696 990 q 636 847 677 896 q 532 799 594 799 q 509 801 522 799 q 481 806 497 802 l 399 829 q 373 834 382 833 q 357 836 363 836 q 311 819 329 836 q 285 768 292 802 z "},"ó":{"ha":829,"x_min":35,"x_max":794,"o":"m 285 328 q 314 146 285 196 q 414 96 342 96 q 514 145 486 96 q 543 328 543 195 q 514 511 543 460 q 414 561 486 561 q 314 511 342 561 q 285 328 285 460 m 35 328 q 136 586 35 492 q 414 681 237 681 q 692 586 591 681 q 794 328 794 492 q 692 70 794 164 q 414 -24 591 -24 q 136 70 237 -24 q 35 328 35 164 m 262 747 l 463 960 q 524 1014 499 999 q 575 1028 548 1028 q 630 1006 608 1028 q 652 950 652 983 q 635 904 652 924 q 579 864 618 884 l 345 747 l 262 747 z "},"ò":{"ha":829,"x_min":35,"x_max":794,"o":"m 285 328 q 314 146 285 196 q 414 96 342 96 q 514 145 486 96 q 543 328 543 195 q 514 511 543 460 q 414 561 486 561 q 314 511 342 561 q 285 328 285 460 m 35 328 q 136 586 35 492 q 414 681 237 681 q 692 586 591 681 q 794 328 794 492 q 692 70 794 164 q 414 -24 591 -24 q 136 70 237 -24 q 35 328 35 164 m 568 747 l 486 747 l 251 864 q 194 904 211 884 q 178 950 178 924 q 200 1006 178 983 q 255 1028 222 1028 q 307 1013 281 1028 q 368 960 332 998 l 568 747 z "},"ô":{"ha":829,"x_min":35,"x_max":794,"o":"m 285 328 q 314 146 285 196 q 414 96 342 96 q 514 145 486 96 q 543 328 543 195 q 514 511 543 460 q 414 561 486 561 q 314 511 342 561 q 285 328 285 460 m 35 328 q 136 586 35 492 q 414 681 237 681 q 692 586 591 681 q 794 328 794 492 q 692 70 794 164 q 414 -24 591 -24 q 136 70 237 -24 q 35 328 35 164 m 184 746 l 349 1013 l 481 1013 l 646 746 l 573 746 l 415 869 l 257 746 l 184 746 z "},"ö":{"ha":829,"x_min":35,"x_max":794,"o":"m 285 328 q 314 146 285 196 q 414 96 342 96 q 514 145 486 96 q 543 328 543 195 q 514 511 543 460 q 414 561 486 561 q 314 511 342 561 q 285 328 285 460 m 35 328 q 136 586 35 492 q 414 681 237 681 q 692 586 591 681 q 794 328 794 492 q 692 70 794 164 q 414 -24 591 -24 q 136 70 237 -24 q 35 328 35 164 m 454 892 q 486 967 454 935 q 562 1000 519 1000 q 640 968 608 1000 q 672 892 672 937 q 641 813 672 844 q 562 782 610 782 q 485 813 516 782 q 454 892 454 845 m 157 892 q 190 967 157 935 q 267 1000 223 1000 q 343 969 312 1000 q 375 892 375 937 q 344 813 375 844 q 267 782 313 782 q 189 813 220 782 q 157 892 157 845 z "},"õ":{"ha":829,"x_min":35,"x_max":794,"o":"m 285 328 q 314 146 285 196 q 414 96 342 96 q 514 145 486 96 q 543 328 543 195 q 514 511 543 460 q 414 561 486 561 q 314 511 342 561 q 285 328 285 460 m 35 328 q 136 586 35 492 q 414 681 237 681 q 692 586 591 681 q 794 328 794 492 q 692 70 794 164 q 414 -24 591 -24 q 136 70 237 -24 q 35 328 35 164 m 239 768 l 179 768 q 238 912 197 864 q 346 960 280 960 q 373 958 359 960 q 403 951 387 956 l 489 929 q 511 925 504 926 q 522 924 517 924 q 564 939 548 924 q 590 990 579 954 l 650 990 q 590 847 631 896 q 486 799 548 799 q 463 801 475 799 q 435 806 451 802 l 353 829 q 327 834 336 833 q 311 836 317 836 q 264 819 283 836 q 239 768 246 802 z "},"ú":{"ha":922,"x_min":22,"x_max":895,"o":"m 790 656 l 790 178 q 803 125 790 138 q 856 113 816 113 l 895 113 l 895 0 l 570 0 l 570 102 q 468 11 527 42 q 339 -20 410 -20 q 169 35 219 -20 q 119 224 119 90 l 119 478 q 107 531 119 518 q 54 543 94 543 l 22 543 l 22 656 l 351 656 l 351 224 q 375 136 351 165 q 447 107 399 107 q 531 146 503 107 q 559 265 559 186 l 559 478 q 547 531 559 518 q 494 543 534 543 l 479 543 l 479 656 l 790 656 m 282 747 l 482 960 q 543 1014 519 999 q 595 1028 568 1028 q 650 1006 628 1028 q 672 950 672 983 q 655 904 672 924 q 599 864 637 884 l 364 747 l 282 747 z "},"ù":{"ha":922,"x_min":22,"x_max":895,"o":"m 790 656 l 790 178 q 803 125 790 138 q 856 113 816 113 l 895 113 l 895 0 l 570 0 l 570 102 q 468 11 527 42 q 339 -20 410 -20 q 169 35 219 -20 q 119 224 119 90 l 119 478 q 107 531 119 518 q 54 543 94 543 l 22 543 l 22 656 l 351 656 l 351 224 q 375 136 351 165 q 447 107 399 107 q 531 146 503 107 q 559 265 559 186 l 559 478 q 547 531 559 518 q 494 543 534 543 l 479 543 l 479 656 l 790 656 m 587 747 l 505 747 l 271 864 q 214 904 231 884 q 197 950 197 924 q 219 1006 197 983 q 275 1028 241 1028 q 327 1013 301 1028 q 387 960 352 998 l 587 747 z "},"û":{"ha":922,"x_min":22,"x_max":895,"o":"m 790 656 l 790 178 q 803 125 790 138 q 856 113 816 113 l 895 113 l 895 0 l 570 0 l 570 102 q 468 11 527 42 q 339 -20 410 -20 q 169 35 219 -20 q 119 224 119 90 l 119 478 q 107 531 119 518 q 54 543 94 543 l 22 543 l 22 656 l 351 656 l 351 224 q 375 136 351 165 q 447 107 399 107 q 531 146 503 107 q 559 265 559 186 l 559 478 q 547 531 559 518 q 494 543 534 543 l 479 543 l 479 656 l 790 656 m 204 746 l 368 1013 l 501 1013 l 665 746 l 593 746 l 435 869 l 277 746 l 204 746 z "},"ü":{"ha":922,"x_min":22,"x_max":895,"o":"m 790 656 l 790 178 q 803 125 790 138 q 856 113 816 113 l 895 113 l 895 0 l 570 0 l 570 102 q 468 11 527 42 q 339 -20 410 -20 q 169 35 219 -20 q 119 224 119 90 l 119 478 q 107 531 119 518 q 54 543 94 543 l 22 543 l 22 656 l 351 656 l 351 224 q 375 136 351 165 q 447 107 399 107 q 531 146 503 107 q 559 265 559 186 l 559 478 q 547 531 559 518 q 494 543 534 543 l 479 543 l 479 656 l 790 656 m 473 892 q 506 967 473 935 q 582 1000 538 1000 q 660 968 627 1000 q 692 892 692 937 q 661 813 692 844 q 582 782 629 782 q 505 813 536 782 q 473 892 473 845 m 176 892 q 210 967 176 935 q 286 1000 243 1000 q 363 969 332 1000 q 395 892 395 937 q 364 813 395 844 q 286 782 333 782 q 208 813 240 782 q 176 892 176 845 z "},"†":{"ha":851,"x_min":94,"x_max":760,"o":"m 385 576 q 355 726 382 633 q 329 860 329 819 q 354 937 329 912 q 432 962 380 962 q 502 937 478 962 q 525 860 525 911 q 498 726 525 819 q 469 576 472 633 q 565 609 503 585 q 654 633 627 633 q 732 608 704 633 q 760 538 760 583 q 735 468 760 494 q 669 441 710 441 q 560 468 627 441 q 469 500 492 494 q 496 146 468 357 q 525 -134 525 -65 q 500 -242 525 -207 q 422 -278 475 -278 q 353 -241 377 -278 q 329 -134 329 -203 q 357 146 329 -65 q 386 500 386 357 q 295 468 362 494 q 186 441 229 441 q 120 468 145 441 q 94 538 94 494 q 123 608 94 583 q 201 633 151 633 q 290 609 229 633 q 385 576 351 585 z "},"°":{"ha":457,"x_min":18,"x_max":440,"o":"m 229 896 q 150 863 182 896 q 117 785 117 831 q 149 705 117 737 q 229 672 182 672 q 308 705 275 672 q 340 785 340 739 q 308 863 340 831 q 229 896 275 896 m 229 994 q 378 932 317 994 q 440 783 440 871 q 378 634 440 696 q 228 572 316 572 q 79 634 140 572 q 18 783 18 695 q 80 933 18 872 q 229 994 141 994 z "},"¢":{"ha":882,"x_min":119,"x_max":765,"o":"m 380 203 l 498 431 q 536 502 512 477 q 597 530 559 526 q 560 557 580 548 q 517 566 540 566 q 405 506 444 566 q 367 334 367 446 q 370 264 367 296 q 380 203 374 232 m 608 228 l 755 227 q 672 41 752 111 q 458 -28 592 -28 q 411 -25 434 -28 q 363 -17 388 -22 l 285 -171 l 191 -171 l 282 11 q 162 137 205 56 q 119 323 119 219 q 212 585 119 492 q 473 677 304 677 q 548 671 514 677 q 611 653 582 665 l 669 764 l 765 764 l 685 610 q 741 541 722 582 q 761 452 761 500 q 723 348 761 385 q 616 310 684 310 q 579 315 597 310 q 542 332 560 321 l 433 118 q 460 101 448 106 q 486 96 473 96 q 572 130 541 96 q 608 228 604 165 z "},"£":{"ha":882,"x_min":37,"x_max":804,"o":"m 82 -22 l 37 129 q 138 219 106 173 q 170 321 170 266 q 168 346 170 334 q 164 371 167 359 l 37 371 l 37 481 l 134 481 q 110 549 117 517 q 102 607 102 580 q 195 798 102 727 q 449 869 289 869 q 695 809 602 869 q 787 653 787 749 q 753 564 787 598 q 664 530 719 530 q 583 560 615 530 q 551 633 551 589 q 567 687 551 664 q 612 725 582 709 q 559 753 587 744 q 497 762 531 762 q 387 729 428 762 q 346 639 346 695 q 352 581 346 616 q 376 481 359 546 l 546 481 l 546 371 l 385 371 q 348 268 378 314 q 264 183 319 222 l 265 180 q 357 213 322 204 q 418 222 391 222 q 531 197 465 222 q 616 171 597 171 q 675 196 659 171 q 693 290 692 221 l 802 290 q 804 272 804 281 q 804 243 804 262 q 749 47 804 116 q 589 -21 693 -21 q 534 -15 564 -21 q 456 7 505 -9 q 412 22 441 12 q 272 54 319 54 q 184 35 231 54 q 82 -22 137 16 z "},"§":{"ha":865,"x_min":90,"x_max":778,"o":"m 289 -161 q 349 -188 320 -179 q 408 -196 378 -196 q 540 -163 490 -196 q 590 -79 590 -131 q 581 -31 590 -52 q 551 5 571 -10 q 408 71 515 34 q 329 100 357 89 q 141 207 191 153 q 90 347 90 261 q 128 464 90 412 q 236 549 165 515 q 164 627 189 582 q 139 725 139 671 q 224 896 139 829 q 444 962 309 962 q 645 913 566 962 q 724 790 724 864 q 694 713 724 745 q 621 682 665 682 q 551 706 578 682 q 524 768 524 730 q 532 803 524 788 q 559 832 541 819 q 504 858 532 850 q 440 867 475 867 q 335 838 374 867 q 296 760 296 808 q 437 648 296 696 q 517 619 488 631 q 725 504 673 558 q 778 363 778 449 q 741 248 778 298 q 631 160 705 198 q 720 73 692 121 q 749 -36 749 26 q 663 -225 749 -156 q 427 -294 577 -294 q 214 -239 295 -294 q 134 -97 134 -184 q 163 -16 134 -47 q 240 16 193 16 q 317 -9 288 16 q 346 -75 346 -34 q 332 -123 346 -102 q 289 -161 317 -144 m 521 216 q 598 245 568 216 q 628 315 628 273 q 610 368 628 345 q 549 412 592 390 q 425 466 486 445 q 338 486 364 486 q 265 457 294 486 q 236 389 236 429 q 255 334 236 357 q 322 286 274 311 q 440 236 382 256 q 521 216 499 216 z "},"•":{"ha":819,"x_min":208,"x_max":610,"o":"m 208 517 q 267 659 208 600 q 410 717 326 717 q 551 658 492 717 q 610 517 610 600 q 550 375 610 434 q 408 315 491 315 q 267 374 325 315 q 208 517 208 433 z "},"¶":{"ha":694,"x_min":20,"x_max":676,"o":"m 676 1003 l 676 920 l 604 920 l 604 0 l 485 0 l 485 920 l 383 920 l 383 0 l 265 0 l 265 532 q 87 600 154 536 q 20 766 20 665 q 92 938 20 873 q 283 1003 163 1003 l 676 1003 z "},"ß":{"ha":867,"x_min":26,"x_max":814,"o":"m 26 0 l 26 117 l 35 117 q 98 130 83 117 q 114 197 114 142 l 114 224 l 114 629 q 129 781 114 729 q 180 871 144 833 q 290 938 224 916 q 446 960 355 960 q 678 908 597 960 q 760 761 760 857 q 717 642 760 689 q 590 575 674 595 q 758 480 703 550 q 814 296 814 411 q 745 68 814 155 q 567 -18 677 -18 q 439 27 483 -18 q 395 157 395 72 l 395 244 l 494 244 l 494 157 q 504 114 494 128 q 534 100 514 100 q 565 121 557 100 q 574 214 574 142 l 574 264 q 541 461 574 416 q 419 507 508 507 l 411 507 l 411 621 l 415 621 q 505 653 473 621 q 536 746 536 686 q 511 822 536 795 q 439 848 485 848 q 361 815 383 848 q 339 682 339 783 l 339 0 l 26 0 z "},"®":{"ha":1141,"x_min":66,"x_max":1075,"o":"m 524 494 q 534 492 529 492 q 550 492 540 492 q 636 521 608 492 q 665 610 665 551 q 639 680 665 652 q 572 708 613 708 q 535 697 547 708 q 524 665 524 687 l 524 494 m 314 746 l 589 746 q 749 708 688 746 q 810 610 810 670 q 766 517 810 551 q 623 467 722 484 q 740 407 701 451 q 778 290 778 363 q 785 244 778 258 q 807 231 791 231 q 833 252 824 231 q 843 311 843 273 l 843 319 l 880 319 q 881 309 880 316 q 882 300 882 302 q 850 208 882 239 q 754 178 818 178 q 700 186 724 178 q 663 211 676 195 q 638 302 641 236 q 635 346 637 331 q 603 430 626 405 q 534 456 579 456 l 524 456 l 524 290 q 536 247 524 260 q 583 229 548 235 l 583 191 l 314 191 l 314 229 q 367 245 353 233 q 380 290 380 258 l 380 646 q 368 690 380 677 q 314 708 355 703 l 314 746 m 572 889 q 407 856 486 889 q 268 762 327 823 q 176 624 208 701 q 144 460 144 546 q 176 294 144 372 q 269 157 208 217 q 409 63 332 95 q 571 32 485 32 q 734 64 657 32 q 871 157 811 96 q 964 297 931 218 q 997 460 997 376 q 964 625 997 545 q 871 764 930 705 q 732 856 810 823 q 572 889 654 889 m 572 965 q 770 924 674 965 q 936 810 865 884 q 1039 647 1003 741 q 1075 449 1075 553 q 1032 259 1075 353 q 913 92 989 164 q 755 -9 844 26 q 571 -45 667 -45 q 427 -23 497 -45 q 293 39 357 -2 q 126 221 185 111 q 66 460 66 332 q 104 652 66 561 q 214 815 142 744 q 378 926 285 887 q 572 965 471 965 z "},"©":{"ha":1141,"x_min":66,"x_max":1075,"o":"m 765 749 l 799 749 l 799 525 l 764 525 q 697 662 744 613 q 586 710 650 710 q 472 648 510 710 q 435 464 435 587 q 476 275 435 340 q 596 210 517 210 q 693 240 648 210 q 778 329 739 270 l 812 307 q 709 197 769 234 q 575 160 650 160 q 359 243 445 160 q 273 450 273 326 q 356 667 273 582 q 568 751 439 751 q 675 729 624 751 q 729 707 726 707 q 752 716 744 707 q 765 749 760 725 m 572 889 q 408 856 487 889 q 269 762 329 823 q 177 623 209 701 q 144 460 144 545 q 176 294 144 372 q 269 157 208 217 q 409 63 332 95 q 571 32 485 32 q 734 64 657 32 q 871 157 811 96 q 964 297 931 218 q 997 460 997 376 q 964 626 997 545 q 872 764 931 706 q 733 856 812 823 q 572 889 654 889 m 572 965 q 763 927 670 965 q 926 818 855 888 q 1036 653 997 747 q 1075 460 1075 559 q 1037 269 1075 361 q 926 104 998 177 q 764 -5 855 33 q 571 -43 672 -43 q 379 -5 470 -43 q 215 104 288 33 q 105 267 143 175 q 66 460 66 358 q 104 652 66 561 q 214 815 142 743 q 378 926 285 887 q 572 965 471 965 z "},"™":{"ha":1141,"x_min":147,"x_max":965,"o":"m 505 990 l 656 990 l 742 749 l 825 990 l 965 990 l 965 972 l 950 968 q 932 958 937 965 q 926 935 926 950 l 926 675 q 932 652 926 660 q 950 642 937 645 l 965 637 l 965 615 l 789 615 l 789 637 l 809 642 q 827 652 821 644 q 833 675 833 661 l 833 916 l 733 614 l 704 614 l 591 924 l 591 675 q 597 652 591 660 q 616 642 604 644 l 639 637 l 639 615 l 505 615 l 505 637 l 529 642 q 547 652 541 644 q 553 675 553 661 l 553 929 q 547 952 553 943 q 530 962 541 960 l 505 966 l 505 990 m 155 990 l 465 990 l 473 856 l 449 856 q 423 935 444 909 q 361 960 402 960 l 361 675 q 367 652 361 660 q 382 642 372 644 l 403 637 l 403 615 l 218 615 l 218 637 l 239 642 q 254 652 249 644 q 260 675 260 661 l 260 960 l 257 960 q 196 934 218 960 q 171 856 175 908 l 147 856 l 155 990 z "},"´":{"ha":694,"x_min":195,"x_max":585,"o":"m 195 747 l 395 960 q 456 1014 431 999 q 507 1028 480 1028 q 563 1006 541 1028 q 585 950 585 983 q 567 904 585 924 q 511 864 550 884 l 277 747 l 195 747 z "},"¨":{"ha":694,"x_min":89,"x_max":604,"o":"m 386 892 q 418 967 386 935 q 494 1000 451 1000 q 572 968 540 1000 q 604 892 604 937 q 573 813 604 844 q 494 782 542 782 q 417 813 448 782 q 386 892 386 845 m 89 892 q 122 967 89 935 q 199 1000 155 1000 q 276 969 244 1000 q 307 892 307 937 q 276 813 307 844 q 199 782 245 782 q 121 813 153 782 q 89 892 89 845 z "},"≠":{"ha":1157,"x_min":172,"x_max":985,"o":"m 810 848 l 924 755 l 832 642 l 985 642 l 985 492 l 729 492 l 607 338 l 985 338 l 985 187 l 507 187 l 340 -21 l 225 72 l 317 187 l 172 187 l 172 338 l 416 338 l 541 492 l 172 492 l 172 642 l 643 642 l 810 848 z "},"Æ":{"ha":1553,"x_min":-17,"x_max":1434,"o":"m 652 472 l 652 810 l 633 810 l 463 472 l 652 472 m 509 0 l 509 122 l 566 122 q 636 136 621 122 q 652 203 652 150 l 652 350 l 397 350 l 319 207 q 302 173 306 183 q 298 153 298 162 q 315 129 298 136 q 371 122 332 122 l 416 122 l 416 0 l -17 0 l -17 122 l 1 122 q 79 145 43 122 q 139 212 115 169 l 425 730 q 440 758 435 748 q 444 771 444 767 q 428 801 444 793 q 364 810 412 810 l 313 810 l 313 932 l 1434 932 l 1434 576 l 1311 576 q 1284 700 1300 658 q 1243 765 1269 741 q 1177 800 1217 789 q 1031 810 1136 810 l 908 810 l 908 545 l 933 545 q 1037 574 1010 545 q 1063 692 1063 603 l 1179 692 l 1179 267 l 1063 267 q 1037 393 1059 365 q 933 421 1015 421 l 908 421 l 908 122 l 1035 122 q 1242 175 1188 122 q 1311 385 1296 228 l 1434 385 l 1434 0 l 509 0 z "},"Ø":{"ha":1137,"x_min":46,"x_max":1092,"o":"m 749 724 q 678 804 723 777 q 570 831 633 831 q 403 746 457 831 q 349 485 349 661 q 350 408 349 448 q 356 327 352 368 l 749 724 m 389 210 q 458 127 414 155 q 567 100 503 100 q 735 185 680 100 q 790 446 790 271 q 788 512 790 473 q 782 607 786 552 l 389 210 m 62 32 l 163 131 q 75 301 103 215 q 46 478 46 387 q 185 828 46 696 q 554 960 323 960 q 734 938 650 960 q 895 871 817 916 l 1000 977 l 1075 901 l 975 802 q 1063 638 1034 722 q 1092 460 1092 555 q 952 102 1092 233 q 567 -28 812 -28 q 391 -6 471 -28 q 241 62 312 16 l 138 -45 l 62 32 z "},"∞":{"ha":1157,"x_min":132,"x_max":1026,"o":"m 648 380 q 719 310 678 334 q 807 286 759 286 q 906 321 867 286 q 945 411 945 357 q 909 499 945 463 q 823 534 874 534 q 735 500 775 534 q 648 380 695 465 m 510 446 q 441 515 481 492 q 351 538 401 538 q 252 503 290 538 q 214 415 214 469 q 249 326 214 362 q 335 290 283 290 q 423 327 382 290 q 510 446 465 363 m 581 300 q 480 169 534 212 q 361 126 427 126 q 199 209 267 126 q 132 412 132 291 q 192 619 132 540 q 346 699 251 699 q 459 660 407 699 q 578 525 511 622 q 679 656 625 614 q 798 699 732 699 q 959 617 892 699 q 1026 414 1026 535 q 967 206 1026 286 q 812 126 907 126 q 700 163 751 126 q 581 300 649 201 z "},"±":{"ha":1157,"x_min":172,"x_max":985,"o":"m 172 144 l 985 144 l 985 -12 l 172 -12 l 172 144 m 498 842 l 660 842 l 660 625 l 985 625 l 985 468 l 660 468 l 660 252 l 498 252 l 498 468 l 172 468 l 172 625 l 498 625 l 498 842 z "},"≤":{"ha":1157,"x_min":174,"x_max":985,"o":"m 174 144 l 985 144 l 985 -11 l 174 -11 l 174 144 m 983 852 l 983 690 l 457 528 l 983 366 l 983 203 l 174 460 l 174 596 l 983 852 z "},"≥":{"ha":1157,"x_min":174,"x_max":985,"o":"m 174 144 l 985 144 l 985 -11 l 174 -11 l 174 144 m 174 852 l 983 596 l 983 460 l 174 203 l 174 366 l 701 528 l 174 690 l 174 852 z "},"¥":{"ha":905,"x_min":-18,"x_max":903,"o":"m 715 578 l 871 578 l 871 488 l 656 488 l 596 393 l 871 393 l 871 304 l 566 304 l 566 193 q 579 123 566 138 q 644 107 593 107 l 703 107 l 703 0 l 192 0 l 192 107 l 252 107 q 315 122 302 107 q 329 193 329 137 l 329 304 l 31 304 l 31 393 l 300 393 l 239 488 l 31 488 l 31 578 l 180 578 l 144 633 q 72 711 107 690 q -18 732 37 731 l -18 839 l 456 839 l 456 732 l 415 732 q 375 725 388 732 q 363 701 363 718 q 370 679 363 693 q 390 643 376 665 l 493 482 l 615 664 q 627 685 623 674 q 631 705 631 696 q 613 726 631 720 q 557 732 596 732 l 543 732 l 543 839 l 903 839 l 903 732 l 899 732 q 818 712 850 732 q 750 633 786 692 l 715 578 z "},"µ":{"ha":836,"x_min":-66,"x_max":804,"o":"m 149 129 q 130 -33 140 68 q 20 -289 103 -289 q -43 -266 -19 -289 q -66 -205 -66 -242 q -20 -15 -66 -168 q 52 254 27 138 l 125 600 l 323 600 l 252 262 q 241 212 245 233 q 237 178 237 190 q 256 119 237 141 q 307 97 275 97 q 378 134 349 97 q 424 250 406 172 l 498 600 l 696 600 l 621 244 q 614 211 616 227 q 612 182 612 195 q 626 136 612 153 q 663 119 639 119 q 696 129 680 119 q 724 154 712 138 q 741 182 730 163 q 785 225 764 225 q 798 217 792 225 q 804 199 804 209 q 790 140 804 178 q 754 69 776 101 q 689 7 726 27 q 604 -14 652 -14 q 512 19 543 -14 q 475 118 480 51 q 408 19 450 52 q 306 -14 366 -14 q 197 23 237 -14 q 149 129 156 60 z "},"∂":{"ha":755,"x_min":40,"x_max":715,"o":"m 519 464 q 541 604 534 541 q 549 705 549 667 q 529 806 549 764 q 482 847 509 847 q 393 784 458 847 q 271 721 327 721 q 216 744 238 721 q 195 800 195 766 q 258 885 195 847 q 407 924 321 924 q 632 814 549 924 q 715 515 715 705 q 605 133 715 282 q 322 -17 495 -17 q 119 62 199 -17 q 40 265 40 141 q 121 493 40 403 q 323 583 202 583 q 439 554 392 583 q 519 464 486 526 m 473 361 q 449 480 473 438 q 378 522 424 522 q 269 430 313 522 q 225 195 225 337 q 250 75 225 116 q 322 35 275 35 q 431 126 388 35 q 473 361 473 218 z "},"∑":{"ha":1075,"x_min":17,"x_max":1043,"o":"m 18 999 l 884 999 l 987 685 l 925 685 l 856 863 q 806 921 839 905 q 669 937 772 937 l 340 937 l 741 424 l 741 396 l 273 -46 l 873 -46 q 913 -37 901 -46 q 932 -3 924 -28 l 979 153 l 1043 153 l 916 -267 l 17 -267 l 17 -207 l 536 285 l 18 950 l 18 999 z "},"∏":{"ha":1203,"x_min":29,"x_max":1169,"o":"m 29 999 l 1169 999 l 1169 937 l 1039 937 l 1039 -205 l 1169 -205 l 1169 -267 l 659 -267 l 659 -205 l 772 -205 l 772 937 l 425 937 l 425 -205 l 541 -205 l 541 -267 l 29 -267 l 29 -205 l 160 -205 l 160 937 l 29 937 l 29 999 z "},"π":{"ha":1026,"x_min":3,"x_max":1004,"o":"m 1004 600 l 958 383 l 715 383 l 715 350 l 715 302 q 720 202 715 267 q 724 110 724 138 q 697 5 724 41 q 621 -31 671 -31 q 557 -8 580 -31 q 534 56 534 14 q 579 211 534 103 q 642 383 624 318 l 386 383 q 385 366 386 377 q 385 350 385 355 l 385 302 q 389 204 385 268 q 393 110 393 140 q 367 5 393 41 q 290 -31 341 -31 q 227 -8 249 -31 q 204 56 204 14 q 249 208 204 100 q 313 383 294 315 l 172 383 q 87 366 111 383 q 52 300 62 348 l 3 300 q 101 535 35 470 q 306 600 166 600 l 1004 600 z "},"∫":{"ha":847,"x_min":35,"x_max":814,"o":"m 245 -168 q 326 284 313 -168 q 329 389 328 353 q 417 899 340 743 q 654 1055 494 1055 q 770 1019 726 1055 q 814 926 814 983 q 786 856 814 883 q 714 829 758 829 q 649 856 671 829 q 627 932 627 882 q 622 965 627 958 q 604 972 616 972 q 520 520 536 972 q 518 458 519 479 q 497 138 511 235 q 458 -28 484 41 q 350 -197 416 -140 q 195 -253 284 -253 q 78 -218 122 -253 q 35 -123 35 -182 q 63 -53 35 -79 q 139 -26 92 -26 q 202 -51 180 -26 q 224 -121 224 -75 q 222 -137 224 -129 q 222 -139 222 -138 q 228 -162 222 -155 q 245 -168 233 -168 z "},"ª":{"ha":642,"x_min":32,"x_max":629,"o":"m 359 528 q 284 473 326 491 q 189 456 242 456 q 74 492 117 456 q 32 587 32 528 q 66 673 32 644 q 210 725 100 703 q 325 760 301 743 q 349 812 349 778 q 320 867 349 846 q 244 888 292 888 q 199 883 218 888 q 165 868 180 878 q 210 850 193 866 q 227 812 227 835 q 203 768 227 785 q 144 750 180 750 q 79 770 104 750 q 54 823 54 791 q 116 916 54 882 q 290 949 178 949 q 390 940 345 949 q 461 914 435 930 q 502 871 490 895 q 514 793 514 847 l 514 781 l 514 603 q 520 570 514 581 q 541 559 526 559 q 561 569 555 559 q 567 603 567 578 l 567 643 l 629 643 l 629 599 q 595 490 629 525 q 486 456 560 456 q 405 474 437 456 q 359 528 374 492 m 346 700 q 294 675 327 690 q 211 606 211 639 q 229 569 211 583 q 273 554 246 554 q 327 575 308 554 q 346 632 346 595 l 346 700 z "},"º":{"ha":623,"x_min":26,"x_max":596,"o":"m 214 703 q 235 575 214 610 q 311 541 257 541 q 386 575 364 541 q 407 703 407 610 q 386 831 407 796 q 311 867 364 867 q 235 831 257 867 q 214 703 214 796 m 26 703 q 102 884 26 818 q 311 950 178 950 q 520 884 444 950 q 596 703 596 817 q 520 523 596 588 q 311 457 444 457 q 102 523 178 457 q 26 703 26 588 z "},"Ω":{"ha":1072,"x_min":20,"x_max":1054,"o":"m 782 201 l 782 192 l 974 192 l 999 273 l 1054 273 l 972 0 l 603 0 q 690 287 661 140 q 720 579 720 434 q 674 860 720 768 q 538 951 629 951 q 400 859 446 951 q 354 581 354 766 q 384 290 354 437 q 471 0 413 143 l 102 0 l 20 273 l 75 273 l 100 192 l 292 192 l 292 201 q 113 343 176 246 q 49 570 49 439 q 188 888 49 760 q 538 1015 327 1015 q 887 887 747 1015 q 1026 568 1026 759 q 962 343 1026 440 q 782 201 897 246 z "},"æ":{"ha":1153,"x_min":41,"x_max":1116,"o":"m 460 323 q 388 288 433 310 q 279 189 279 235 q 302 136 279 156 q 363 115 326 115 q 434 144 408 115 q 460 227 460 174 l 460 323 m 669 412 l 882 411 l 882 429 q 855 525 882 491 q 779 558 829 558 q 698 522 726 558 q 669 412 671 485 m 515 96 q 394 5 459 35 q 254 -25 328 -25 q 99 26 156 -25 q 41 163 41 77 q 87 284 41 242 q 279 358 134 327 q 434 410 403 385 q 465 485 465 435 q 427 561 465 532 q 325 590 389 590 q 264 584 290 590 q 220 563 239 577 q 279 538 256 560 q 301 485 301 517 q 271 420 301 446 q 192 395 240 395 q 104 425 138 395 q 71 503 71 454 q 154 629 71 580 q 370 679 237 679 q 493 661 439 679 q 583 607 548 642 q 677 662 628 644 q 785 679 726 679 q 1026 584 937 679 q 1116 326 1116 490 l 1116 298 l 664 298 l 664 288 q 698 152 664 197 q 799 107 732 107 q 895 136 859 107 q 940 222 931 165 l 1107 222 q 991 38 1073 101 q 786 -25 909 -25 q 636 4 701 -25 q 515 96 570 33 z "},"ø":{"ha":829,"x_min":31,"x_max":799,"o":"m 633 624 l 715 707 l 785 640 l 713 566 q 777 460 755 518 q 799 336 799 403 q 695 73 799 170 q 414 -24 591 -24 q 291 -11 345 -24 q 191 29 237 2 l 106 -57 l 41 11 l 118 87 q 52 194 74 136 q 31 322 31 253 q 134 584 31 487 q 414 681 237 681 q 531 667 478 681 q 633 624 585 653 m 286 266 l 518 504 q 475 549 500 534 q 416 564 451 564 q 315 511 346 564 q 285 335 285 458 q 285 293 285 307 q 286 266 286 278 m 542 390 l 309 151 q 351 107 324 122 q 415 93 377 93 q 515 144 485 93 q 545 319 545 196 q 543 357 545 328 q 542 390 542 378 z "},"¿":{"ha":786,"x_min":64,"x_max":724,"o":"m 492 637 q 493 629 492 634 q 493 615 493 625 q 480 540 493 577 q 443 469 468 503 q 403 415 430 450 q 318 236 318 305 q 360 143 318 180 q 467 106 403 106 q 567 138 525 106 q 614 218 608 170 q 582 209 597 212 q 554 205 566 205 q 481 233 508 205 q 454 307 454 260 q 489 396 454 363 q 586 428 524 428 q 685 379 646 428 q 724 254 724 330 q 631 52 724 132 q 393 -28 538 -28 q 156 44 248 -28 q 64 229 64 117 q 94 348 64 296 q 193 452 124 400 q 235 481 208 462 q 354 637 347 559 l 492 637 m 541 842 q 507 759 541 793 q 424 725 473 725 q 340 759 374 725 q 306 842 306 793 q 340 926 306 892 q 424 960 374 960 q 507 925 473 960 q 541 842 541 891 z "},"¡":{"ha":439,"x_min":89,"x_max":350,"o":"m 102 842 q 135 925 102 891 q 218 960 169 960 q 302 926 268 960 q 336 842 336 892 q 302 759 336 793 q 218 725 267 725 q 135 759 169 725 q 102 842 102 793 m 283 640 q 322 351 295 519 q 350 135 350 182 q 315 15 350 58 q 216 -28 279 -28 q 124 12 159 -28 q 89 117 89 52 q 118 368 89 195 q 153 640 148 541 l 283 640 z "},"¬":{"ha":1157,"x_min":172,"x_max":985,"o":"m 172 587 l 985 587 l 985 248 l 829 248 l 829 433 l 172 433 l 172 587 z "},"√":{"ha":926,"x_min":52,"x_max":929,"o":"m 783 1162 l 929 1162 l 929 1061 l 864 1061 l 464 -28 l 383 -28 l 175 546 l 77 509 l 52 596 l 296 682 l 447 252 l 783 1162 z "},"ƒ":{"ha":882,"x_min":11,"x_max":838,"o":"m 157 -210 q 174 -213 166 -212 q 191 -214 182 -214 q 246 -188 227 -214 q 273 -92 264 -161 q 291 112 279 -56 q 315 403 304 279 l 143 403 l 143 503 l 335 503 q 442 778 364 686 q 647 869 520 869 q 784 832 730 869 q 838 739 838 795 q 808 663 838 694 q 734 632 778 632 q 667 658 694 632 q 640 724 640 684 q 650 758 640 743 q 680 783 661 772 q 670 785 675 785 q 654 786 665 786 q 581 725 604 786 q 555 503 559 664 l 743 503 l 743 403 l 546 403 q 506 67 529 197 q 452 -138 484 -63 q 350 -255 420 -212 q 191 -298 279 -298 q 59 -263 107 -298 q 11 -168 11 -228 q 39 -90 11 -119 q 114 -60 68 -60 q 179 -83 153 -60 q 204 -140 204 -106 q 192 -182 204 -164 q 157 -210 180 -199 z "},"≈":{"ha":1157,"x_min":121,"x_max":1038,"o":"m 1038 408 l 1038 236 q 905 165 966 188 q 782 143 843 143 q 590 188 721 143 q 380 232 459 232 q 263 207 325 232 q 121 125 202 182 l 121 297 q 262 371 196 347 q 395 395 329 395 q 601 350 473 395 q 786 306 730 306 q 901 330 842 306 q 1038 408 960 353 m 1038 703 l 1038 530 q 904 461 965 483 q 783 439 843 439 q 591 483 722 439 q 380 526 460 526 q 264 502 323 526 q 121 419 204 477 l 121 593 q 262 666 197 643 q 395 689 328 689 q 601 645 473 689 q 786 600 730 600 q 902 624 842 600 q 1038 703 961 648 z "},"∆":{"ha":913,"x_min":-56,"x_max":968,"o":"m 358 736 l 117 227 l 600 227 l 358 736 m 433 1015 l 485 1015 l 968 0 l -56 0 l 433 1015 z "},"«":{"ha":679,"x_min":64,"x_max":615,"o":"m 208 93 l 199 106 q 64 328 64 293 q 99 411 64 353 q 208 567 135 470 l 326 567 l 323 557 q 245 328 245 371 q 264 255 245 303 q 338 93 282 208 l 208 93 m 486 93 l 477 106 q 342 328 342 293 q 377 411 342 353 q 486 567 413 470 l 604 567 l 600 557 q 524 328 524 371 q 542 255 524 303 q 615 93 560 208 l 486 93 z "},"»":{"ha":679,"x_min":64,"x_max":615,"o":"m 471 93 l 342 93 q 415 255 397 208 q 433 328 433 303 q 357 557 433 371 l 353 567 l 471 567 q 579 411 544 470 q 615 328 615 353 q 481 106 615 293 l 471 93 m 193 93 l 64 93 q 137 255 119 208 q 155 328 155 303 q 79 557 155 371 l 75 567 l 193 567 q 302 411 267 470 q 338 328 338 353 q 203 106 338 293 l 193 93 z "},"…":{"ha":1389,"x_min":114,"x_max":1275,"o":"m 114 89 q 148 172 114 138 q 232 207 182 207 q 314 173 280 207 q 349 89 349 138 q 315 5 349 39 q 232 -28 281 -28 q 148 6 182 -28 q 114 89 114 40 m 576 89 q 611 172 576 138 q 694 207 645 207 q 777 173 743 207 q 811 89 811 138 q 778 5 811 39 q 694 -28 744 -28 q 610 6 644 -28 q 576 89 576 40 m 1040 89 q 1075 172 1040 138 q 1158 207 1109 207 q 1241 173 1206 207 q 1275 89 1275 138 q 1241 5 1275 39 q 1158 -28 1208 -28 q 1074 6 1108 -28 q 1040 89 1040 40 z "}," ":{"ha":882,"x_min":0,"x_max":0,"o":""},"À":{"ha":994,"x_min":-18,"x_max":1013,"o":"m 541 421 l 447 715 l 351 421 l 541 421 m -18 0 l -18 122 l 16 122 q 82 137 61 122 q 123 212 103 151 l 363 932 l 640 932 l 869 208 q 906 139 887 155 q 965 122 926 122 l 1013 122 l 1013 0 l 498 0 l 498 122 l 538 122 q 605 129 588 122 q 623 155 623 136 q 618 175 622 161 q 615 185 616 182 l 579 300 l 311 300 l 276 193 q 271 173 273 183 q 269 155 269 163 q 283 129 269 136 q 345 122 298 122 l 390 122 l 390 0 l -18 0 m 661 1027 l 579 1027 l 345 1143 q 288 1183 304 1163 q 271 1230 271 1203 q 293 1285 271 1263 q 349 1308 315 1308 q 400 1292 375 1308 q 461 1239 426 1277 l 661 1027 z "},"Ã":{"ha":994,"x_min":-18,"x_max":1013,"o":"m 541 421 l 447 715 l 351 421 l 541 421 m -18 0 l -18 122 l 16 122 q 82 137 61 122 q 123 212 103 151 l 363 932 l 640 932 l 869 208 q 906 139 887 155 q 965 122 926 122 l 1013 122 l 1013 0 l 498 0 l 498 122 l 538 122 q 605 129 588 122 q 623 155 623 136 q 618 175 622 161 q 615 185 616 182 l 579 300 l 311 300 l 276 193 q 271 173 273 183 q 269 155 269 163 q 283 129 269 136 q 345 122 298 122 l 390 122 l 390 0 l -18 0 m 332 1048 l 273 1048 q 332 1191 290 1143 q 439 1239 374 1239 q 466 1237 452 1239 q 496 1231 480 1235 l 583 1208 q 604 1204 597 1205 q 616 1203 611 1203 q 657 1218 642 1203 q 684 1270 673 1234 l 743 1270 q 683 1127 725 1175 q 579 1078 642 1078 q 557 1080 569 1078 q 529 1085 545 1082 l 446 1109 q 420 1114 430 1112 q 404 1116 410 1116 q 358 1098 376 1116 q 332 1048 340 1081 z "},"Õ":{"ha":1137,"x_min":46,"x_max":1092,"o":"m 349 465 q 401 187 349 275 q 570 100 454 100 q 737 187 684 100 q 790 465 790 275 q 737 743 790 656 q 570 831 684 831 q 401 743 454 831 q 349 465 349 656 m 46 465 q 185 828 46 696 q 570 960 325 960 q 952 828 813 960 q 1092 465 1092 696 q 953 103 1092 235 q 570 -28 814 -28 q 185 104 325 -28 q 46 465 46 235 m 393 1048 l 334 1048 q 393 1191 351 1143 q 500 1239 435 1239 q 527 1237 513 1239 q 557 1231 541 1235 l 644 1208 q 665 1204 659 1205 q 677 1203 672 1203 q 718 1218 703 1203 q 745 1270 734 1234 l 804 1270 q 744 1127 786 1175 q 640 1078 703 1078 q 618 1080 630 1078 q 590 1085 606 1082 l 507 1109 q 481 1114 491 1112 q 465 1116 471 1116 q 419 1098 437 1116 q 393 1048 401 1081 z "},"Œ":{"ha":1659,"x_min":46,"x_max":1573,"o":"m 791 347 l 791 585 q 748 782 791 732 q 590 832 704 832 q 406 745 464 832 q 349 465 349 659 q 406 186 349 273 q 590 100 463 100 q 748 150 704 100 q 791 347 791 200 m 1573 385 l 1573 0 l 949 0 q 760 -14 886 0 q 570 -28 633 -28 q 185 104 325 -28 q 46 465 46 235 q 185 828 46 696 q 570 960 325 960 q 748 946 633 960 q 916 932 863 932 l 1573 932 l 1573 576 l 1451 576 q 1425 700 1440 658 q 1383 765 1409 741 q 1317 800 1357 789 q 1171 810 1276 810 l 1050 810 l 1050 545 l 1074 545 q 1177 574 1151 545 q 1203 692 1203 603 l 1320 692 l 1320 267 l 1203 267 q 1177 393 1201 364 q 1074 422 1154 422 l 1050 422 l 1050 122 l 1175 122 q 1382 175 1329 122 q 1451 385 1436 228 l 1573 385 z "},"œ":{"ha":1275,"x_min":35,"x_max":1239,"o":"m 791 411 l 1003 411 q 976 521 1003 483 q 899 559 949 559 q 819 522 846 559 q 791 411 791 485 m 285 328 q 314 145 285 195 q 414 94 342 94 q 514 144 486 94 q 543 328 543 195 q 514 510 543 460 q 414 559 486 559 q 314 510 342 559 q 285 328 285 460 m 667 75 q 553 1 619 26 q 404 -24 486 -24 q 135 72 235 -24 q 35 328 35 167 q 137 586 35 494 q 424 677 239 677 q 566 653 506 677 q 668 579 626 629 q 780 654 722 630 q 905 677 837 677 q 1149 583 1059 677 q 1239 325 1239 488 l 1239 298 l 787 298 l 787 288 q 821 152 787 197 q 922 107 855 107 q 1018 136 982 107 q 1063 222 1053 165 l 1229 222 q 1113 39 1196 101 q 901 -24 1030 -24 q 768 1 826 -24 q 667 75 711 25 z "},"–":{"ha":694,"x_min":0,"x_max":694,"o":"m 0 252 l 0 404 l 694 404 l 694 252 l 0 252 z "},"—":{"ha":1389,"x_min":0,"x_max":1389,"o":"m 0 252 l 0 404 l 1389 404 l 1389 252 l 0 252 z "},"“":{"ha":686,"x_min":54,"x_max":633,"o":"m 175 777 q 188 779 181 778 q 207 779 195 779 q 282 750 254 779 q 311 675 311 722 q 276 589 311 624 q 191 554 241 554 q 92 595 129 554 q 54 704 54 636 q 123 869 54 800 q 306 960 191 939 l 306 880 q 219 847 250 872 q 175 777 187 821 m 497 777 q 510 779 503 778 q 529 779 517 779 q 605 750 576 779 q 633 675 633 722 q 598 589 633 624 q 513 554 564 554 q 414 595 451 554 q 376 704 376 636 q 445 869 376 800 q 628 960 513 939 l 628 880 q 541 847 573 872 q 497 777 509 821 z "},"”":{"ha":686,"x_min":53,"x_max":633,"o":"m 189 742 q 177 740 183 740 q 157 739 170 739 q 82 768 111 739 q 53 844 53 798 q 88 930 53 895 q 174 965 123 965 q 273 924 235 965 q 311 815 311 883 q 243 650 311 720 q 60 559 174 580 l 60 639 q 145 672 115 648 q 189 742 176 696 m 511 742 q 499 740 505 740 q 479 739 492 739 q 404 768 433 739 q 375 844 375 798 q 410 930 375 895 q 496 965 445 965 q 595 924 557 965 q 633 815 633 883 q 565 650 633 720 q 382 559 496 580 l 382 639 q 468 672 437 648 q 511 742 499 696 z "},"‘":{"ha":364,"x_min":53,"x_max":311,"o":"m 175 777 q 188 779 181 778 q 207 779 195 779 q 282 750 254 779 q 311 675 311 722 q 276 589 311 624 q 191 554 241 554 q 91 595 129 554 q 53 704 53 637 q 121 869 53 800 q 304 960 190 939 l 304 880 q 218 847 250 872 q 175 777 187 822 z "},"’":{"ha":364,"x_min":53,"x_max":310,"o":"m 189 742 q 177 740 183 740 q 157 739 170 739 q 82 768 111 739 q 53 844 53 798 q 88 930 53 895 q 174 965 123 965 q 272 924 235 965 q 310 815 310 883 q 241 650 310 720 q 58 559 173 580 l 58 639 q 145 672 114 648 q 189 742 177 697 z "},"÷":{"ha":1157,"x_min":172,"x_max":985,"o":"m 579 252 q 658 219 625 252 q 690 139 690 186 q 658 60 690 93 q 579 28 626 28 q 499 60 532 28 q 467 139 467 93 q 500 218 467 185 q 579 252 533 252 m 172 493 l 985 493 l 985 336 l 172 336 l 172 493 m 579 802 q 657 768 625 802 q 690 689 690 735 q 657 610 690 643 q 578 578 625 578 q 499 610 531 578 q 467 689 467 643 q 500 768 467 735 q 579 802 533 802 z "},"◊":{"ha":686,"x_min":4,"x_max":682,"o":"m 343 956 l 82 401 l 343 -158 l 604 401 l 343 956 m 343 1121 l 682 401 l 343 -323 l 4 401 l 343 1121 z "},"ÿ":{"ha":827,"x_min":18,"x_max":810,"o":"m 354 -47 l 139 463 q 102 526 118 511 q 61 541 85 541 l 24 541 l 24 656 l 444 656 l 444 541 l 412 541 q 370 535 384 541 q 355 518 355 529 q 371 469 355 505 l 372 467 l 473 233 l 562 458 l 566 465 q 582 519 582 507 q 570 535 582 530 q 532 541 558 541 l 500 541 l 500 656 l 810 656 l 810 541 q 740 525 762 539 q 696 457 718 511 l 485 -56 q 367 -248 428 -194 q 215 -302 307 -302 q 73 -252 128 -302 q 18 -122 18 -202 q 53 -27 18 -63 q 144 8 87 8 q 224 -18 195 8 q 254 -87 254 -44 q 228 -156 254 -131 q 157 -182 202 -182 q 143 -181 148 -182 q 134 -180 138 -181 q 164 -206 149 -198 q 196 -214 180 -214 q 287 -171 246 -214 q 354 -47 328 -128 m 452 892 q 485 967 452 935 q 561 1000 517 1000 q 638 968 606 1000 q 671 892 671 937 q 640 813 671 844 q 561 782 608 782 q 484 813 515 782 q 452 892 452 845 m 155 892 q 189 967 155 935 q 265 1000 222 1000 q 342 969 311 1000 q 374 892 374 937 q 343 813 374 844 q 265 782 312 782 q 187 813 219 782 q 155 892 155 845 z "},"Ÿ":{"ha":1083,"x_min":32,"x_max":1044,"o":"m 673 214 q 688 136 673 153 q 760 119 703 119 l 825 119 l 825 0 l 262 0 l 262 119 l 328 119 q 400 137 385 119 q 415 214 415 154 l 415 385 l 211 704 q 132 789 171 767 q 33 814 94 812 l 32 932 l 566 932 l 566 814 l 521 814 q 477 805 492 814 q 463 779 463 797 q 469 757 463 771 q 494 715 476 743 l 603 547 l 729 737 q 742 762 737 749 q 746 785 746 774 q 728 807 746 800 q 672 814 711 814 l 650 814 l 650 932 l 1044 932 l 1044 814 l 1040 814 q 955 793 988 814 q 878 704 921 773 l 673 385 l 673 214 m 581 1171 q 613 1247 581 1214 q 689 1280 646 1280 q 767 1248 734 1280 q 799 1171 799 1216 q 768 1093 799 1124 q 689 1061 736 1061 q 612 1093 643 1061 q 581 1171 581 1124 m 283 1171 q 317 1247 283 1214 q 393 1280 350 1280 q 470 1248 439 1280 q 502 1171 502 1217 q 471 1092 502 1123 q 393 1061 440 1061 q 315 1093 347 1061 q 283 1171 283 1124 z "},"∕":{"ha":232,"x_min":-232,"x_max":463,"o":"m -232 -25 l 347 871 l 463 871 l -109 -25 l -232 -25 z "},"¤":{"ha":882,"x_min":-5,"x_max":848,"o":"m 848 306 q 754 62 844 147 q 504 -24 665 -24 q 254 60 358 -24 q 117 290 151 144 l -5 290 l 21 380 l 104 380 q 103 397 103 389 q 103 422 103 405 q 105 467 103 439 q 106 473 105 471 l -5 473 l 21 564 l 119 564 q 257 788 155 706 q 503 869 359 869 q 620 848 565 869 q 704 791 675 827 l 726 846 l 840 846 l 840 543 l 718 543 q 655 697 700 647 q 533 747 610 747 q 427 701 469 747 q 368 564 386 655 l 632 564 l 607 473 l 358 473 q 357 454 357 463 q 357 422 357 444 q 357 401 357 414 q 358 380 358 387 l 576 380 l 551 290 l 367 290 q 425 145 383 193 q 541 98 467 98 q 673 152 625 98 q 729 306 722 206 l 848 306 z "},"‹":{"ha":401,"x_min":64,"x_max":338,"o":"m 208 93 l 199 106 q 64 328 64 293 q 99 411 64 353 q 208 567 135 470 l 326 567 l 323 557 q 245 328 245 371 q 264 255 245 303 q 338 93 282 208 l 208 93 z "},"›":{"ha":401,"x_min":64,"x_max":338,"o":"m 193 93 l 64 93 q 137 255 119 208 q 155 328 155 303 q 79 557 155 371 l 75 567 l 193 567 q 302 411 267 470 q 338 328 338 353 q 203 106 338 293 l 193 93 z "},"":{"ha":932,"x_min":29,"x_max":903,"o":"m 29 0 l 29 109 q 117 127 99 113 q 135 187 135 142 l 135 541 l 29 541 l 29 656 l 134 656 q 134 670 134 662 q 134 693 134 677 q 217 892 134 829 q 478 956 300 956 q 706 914 624 956 q 789 800 789 872 q 755 722 789 752 q 667 692 721 692 q 585 716 614 692 q 557 786 557 741 q 564 818 557 804 q 585 843 570 832 q 548 856 568 852 q 504 860 528 860 q 386 820 422 860 q 350 686 350 780 q 351 671 350 682 q 351 656 351 661 l 806 656 l 806 199 q 821 126 806 142 q 880 110 836 110 l 903 110 l 903 0 l 496 0 l 496 110 q 568 123 552 110 q 585 196 585 137 l 585 452 q 572 526 585 511 q 515 541 559 541 l 350 541 l 350 203 q 366 125 350 140 q 432 110 381 110 l 441 110 l 441 0 l 29 0 z "},"":{"ha":932,"x_min":29,"x_max":903,"o":"m 29 0 l 29 109 q 117 127 99 113 q 135 187 135 142 l 135 541 l 29 541 l 29 656 l 134 656 q 134 669 134 662 q 134 690 134 677 q 215 894 134 828 q 467 960 296 960 q 561 953 510 960 q 672 932 612 946 l 807 933 l 807 199 q 823 124 807 139 q 892 110 838 110 l 903 110 l 903 0 l 497 0 l 497 110 q 570 125 555 113 q 585 196 585 138 l 585 713 q 561 744 569 726 q 553 781 553 761 q 560 814 553 799 q 582 843 567 829 q 543 856 563 852 q 501 860 523 860 q 384 820 420 860 q 349 686 349 779 q 349 671 349 682 q 350 656 350 661 l 472 656 l 472 541 l 350 541 l 350 196 q 366 125 350 140 q 432 110 381 110 l 441 110 l 441 0 l 29 0 z "},"‡":{"ha":851,"x_min":82,"x_max":770,"o":"m 530 340 q 489 252 505 302 q 464 140 472 201 l 473 140 q 579 164 513 140 q 679 187 646 187 q 746 163 722 187 q 770 96 770 139 q 745 33 770 58 q 682 8 720 8 q 594 29 663 8 q 471 60 524 50 q 504 -75 479 3 q 529 -179 529 -153 q 503 -252 529 -227 q 427 -278 476 -278 q 351 -251 377 -278 q 325 -174 325 -224 q 350 -67 325 -144 q 382 60 374 9 q 266 32 334 55 q 171 9 197 9 q 107 35 133 9 q 82 97 82 60 q 107 163 82 137 q 171 189 132 189 q 272 165 201 189 q 387 138 342 140 q 364 251 380 201 q 321 342 348 301 q 364 430 348 380 q 387 545 380 480 q 272 517 342 542 q 171 493 201 493 q 107 518 132 493 q 82 583 82 544 q 108 646 82 621 q 171 672 134 672 q 266 650 197 672 q 382 623 334 627 q 350 749 374 673 q 325 856 325 826 q 351 933 325 906 q 427 960 377 960 q 503 934 476 960 q 529 861 529 909 q 504 756 529 836 q 471 621 479 677 q 594 652 525 631 q 682 673 664 673 q 745 649 720 673 q 770 586 770 624 q 746 519 770 543 q 679 494 722 494 q 579 518 646 494 q 473 542 513 542 l 464 542 q 489 429 472 479 q 530 340 506 378 z "},"·":{"ha":441,"x_min":103,"x_max":338,"o":"m 103 443 q 137 526 103 492 q 221 559 172 559 q 304 526 270 559 q 338 443 338 492 q 304 359 338 393 q 221 325 271 325 q 137 359 172 325 q 103 443 103 393 z "},"‚":{"ha":364,"x_min":53,"x_max":310,"o":"m 189 -20 q 177 -22 183 -21 q 157 -22 170 -22 q 82 7 111 -22 q 53 83 53 36 q 87 169 53 134 q 174 203 122 203 q 272 162 235 203 q 310 53 310 121 q 241 -112 310 -43 q 58 -201 173 -181 l 58 -123 q 145 -90 113 -115 q 189 -20 176 -64 z "},"„":{"ha":686,"x_min":53,"x_max":633,"o":"m 511 -16 q 499 -18 505 -17 q 479 -18 492 -18 q 404 11 433 -18 q 375 87 375 41 q 410 173 375 138 q 496 207 445 207 q 595 166 557 207 q 633 57 633 125 q 565 -109 633 -39 q 382 -199 496 -178 l 382 -119 q 468 -86 437 -111 q 511 -16 498 -61 m 189 -16 q 177 -18 183 -17 q 157 -18 170 -18 q 82 11 111 -18 q 53 87 53 41 q 87 173 53 138 q 174 207 122 207 q 273 166 235 207 q 311 57 311 125 q 243 -109 311 -39 q 60 -199 174 -178 l 60 -119 q 145 -86 114 -111 q 189 -16 176 -61 z "},"‰":{"ha":1931,"x_min":45,"x_max":1885,"o":"m 45 603 q 117 796 45 722 q 307 869 189 869 q 496 797 425 869 q 568 603 568 724 q 496 409 568 482 q 306 335 423 335 q 116 409 188 335 q 45 603 45 482 m 211 603 q 233 470 211 511 q 306 429 256 429 q 379 470 356 429 q 401 603 401 511 q 379 734 401 694 q 307 775 357 775 q 234 734 257 775 q 211 603 211 693 m 1361 243 q 1434 437 1361 363 q 1624 511 1507 511 q 1812 437 1740 511 q 1885 243 1885 363 q 1813 49 1885 122 q 1624 -24 1742 -24 q 1434 50 1506 -24 q 1361 243 1361 123 m 1528 243 q 1551 111 1528 152 q 1624 69 1573 69 q 1696 110 1674 69 q 1718 243 1718 151 q 1695 375 1718 334 q 1624 415 1673 415 q 1551 374 1573 415 q 1528 243 1528 333 m 764 243 q 836 437 764 363 q 1025 511 908 511 q 1215 437 1142 511 q 1287 243 1287 363 q 1215 50 1287 123 q 1025 -24 1143 -24 q 836 50 908 -24 q 764 243 764 123 m 930 243 q 953 111 930 152 q 1025 69 975 69 q 1097 111 1075 69 q 1120 243 1120 152 q 1097 375 1120 334 q 1025 415 1075 415 q 953 375 975 415 q 930 243 930 334 m 345 -25 l 867 871 l 989 871 l 468 -25 l 345 -25 z "},"Â":{"ha":994,"x_min":-18,"x_max":1013,"o":"m 541 421 l 447 715 l 351 421 l 541 421 m -18 0 l -18 122 l 16 122 q 82 137 61 122 q 123 212 103 151 l 363 932 l 640 932 l 869 208 q 906 139 887 155 q 965 122 926 122 l 1013 122 l 1013 0 l 498 0 l 498 122 l 538 122 q 605 129 588 122 q 623 155 623 136 q 618 175 622 161 q 615 185 616 182 l 579 300 l 311 300 l 276 193 q 271 173 273 183 q 269 155 269 163 q 283 129 269 136 q 345 122 298 122 l 390 122 l 390 0 l -18 0 m 278 1025 l 442 1292 l 575 1292 l 739 1025 l 667 1025 l 509 1149 l 351 1025 l 278 1025 z "},"Ê":{"ha":1039,"x_min":26,"x_max":947,"o":"m 26 0 l 26 122 l 78 122 q 148 136 132 122 q 163 203 163 149 l 163 729 q 148 797 163 783 q 78 810 132 810 l 26 810 l 26 932 l 947 932 l 947 576 l 825 576 q 798 700 814 658 q 757 765 783 741 q 690 800 731 789 q 545 810 650 810 l 424 810 l 424 545 l 447 545 q 550 574 524 545 q 576 692 576 603 l 693 692 l 693 267 l 576 267 q 551 393 574 364 q 447 422 527 422 l 424 422 l 424 122 l 549 122 q 756 175 702 122 q 825 385 810 228 l 947 385 l 947 0 l 26 0 m 282 1025 l 446 1292 l 579 1292 l 743 1025 l 671 1025 l 513 1149 l 355 1025 l 282 1025 z "},"Á":{"ha":994,"x_min":-18,"x_max":1013,"o":"m 541 421 l 447 715 l 351 421 l 541 421 m -18 0 l -18 122 l 16 122 q 82 137 61 122 q 123 212 103 151 l 363 932 l 640 932 l 869 208 q 906 139 887 155 q 965 122 926 122 l 1013 122 l 1013 0 l 498 0 l 498 122 l 538 122 q 605 129 588 122 q 623 155 623 136 q 618 175 622 161 q 615 185 616 182 l 579 300 l 311 300 l 276 193 q 271 173 273 183 q 269 155 269 163 q 283 129 269 136 q 345 122 298 122 l 390 122 l 390 0 l -18 0 m 356 1027 l 556 1239 q 617 1293 593 1278 q 669 1308 642 1308 q 724 1285 702 1308 q 746 1230 746 1263 q 729 1183 746 1204 q 673 1143 711 1163 l 438 1027 l 356 1027 z "},"Ë":{"ha":1039,"x_min":26,"x_max":947,"o":"m 26 0 l 26 122 l 78 122 q 148 136 132 122 q 163 203 163 149 l 163 729 q 148 797 163 783 q 78 810 132 810 l 26 810 l 26 932 l 947 932 l 947 576 l 825 576 q 798 700 814 658 q 757 765 783 741 q 690 800 731 789 q 545 810 650 810 l 424 810 l 424 545 l 447 545 q 550 574 524 545 q 576 692 576 603 l 693 692 l 693 267 l 576 267 q 551 393 574 364 q 447 422 527 422 l 424 422 l 424 122 l 549 122 q 756 175 702 122 q 825 385 810 228 l 947 385 l 947 0 l 26 0 m 551 1171 q 584 1247 551 1214 q 660 1280 616 1280 q 738 1248 705 1280 q 770 1171 770 1216 q 739 1093 770 1124 q 660 1061 707 1061 q 583 1093 614 1061 q 551 1171 551 1124 m 254 1171 q 288 1247 254 1214 q 364 1280 321 1280 q 441 1248 410 1280 q 473 1171 473 1217 q 442 1092 473 1123 q 364 1061 411 1061 q 286 1093 318 1061 q 254 1171 254 1124 z "},"È":{"ha":1039,"x_min":26,"x_max":947,"o":"m 26 0 l 26 122 l 78 122 q 148 136 132 122 q 163 203 163 149 l 163 729 q 148 797 163 783 q 78 810 132 810 l 26 810 l 26 932 l 947 932 l 947 576 l 825 576 q 798 700 814 658 q 757 765 783 741 q 690 800 731 789 q 545 810 650 810 l 424 810 l 424 545 l 447 545 q 550 574 524 545 q 576 692 576 603 l 693 692 l 693 267 l 576 267 q 551 393 574 364 q 447 422 527 422 l 424 422 l 424 122 l 549 122 q 756 175 702 122 q 825 385 810 228 l 947 385 l 947 0 l 26 0 m 665 1027 l 583 1027 l 349 1143 q 292 1183 309 1163 q 275 1230 275 1203 q 297 1285 275 1263 q 353 1308 319 1308 q 405 1292 379 1308 q 465 1239 430 1277 l 665 1027 z "},"Í":{"ha":608,"x_min":29,"x_max":579,"o":"m 29 0 l 29 122 l 86 122 q 156 136 140 122 q 171 203 171 149 l 171 729 q 156 797 171 783 q 86 810 140 810 l 29 810 l 29 932 l 579 932 l 579 810 l 522 810 q 452 796 467 810 q 436 729 436 782 l 436 203 q 452 136 436 150 q 522 122 467 122 l 579 122 l 579 0 l 29 0 m 152 1027 l 352 1239 q 413 1293 389 1278 q 465 1308 437 1308 q 520 1285 498 1308 q 542 1230 542 1263 q 525 1183 542 1204 q 469 1143 507 1163 l 234 1027 l 152 1027 z "},"Î":{"ha":608,"x_min":29,"x_max":579,"o":"m 29 0 l 29 122 l 86 122 q 156 136 140 122 q 171 203 171 149 l 171 729 q 156 797 171 783 q 86 810 140 810 l 29 810 l 29 932 l 579 932 l 579 810 l 522 810 q 452 796 467 810 q 436 729 436 782 l 436 203 q 452 136 436 150 q 522 122 467 122 l 579 122 l 579 0 l 29 0 m 74 1025 l 238 1292 l 371 1292 l 535 1025 l 463 1025 l 304 1149 l 146 1025 l 74 1025 z "},"Ï":{"ha":608,"x_min":29,"x_max":579,"o":"m 29 0 l 29 122 l 86 122 q 156 136 140 122 q 171 203 171 149 l 171 729 q 156 797 171 783 q 86 810 140 810 l 29 810 l 29 932 l 579 932 l 579 810 l 522 810 q 452 796 467 810 q 436 729 436 782 l 436 203 q 452 136 436 150 q 522 122 467 122 l 579 122 l 579 0 l 29 0 m 343 1171 q 376 1247 343 1214 q 452 1280 408 1280 q 529 1248 497 1280 q 562 1171 562 1216 q 530 1093 562 1124 q 452 1061 499 1061 q 374 1093 406 1061 q 343 1171 343 1124 m 46 1171 q 79 1247 46 1214 q 156 1280 113 1280 q 233 1248 201 1280 q 264 1171 264 1217 q 234 1092 264 1123 q 156 1061 203 1061 q 78 1093 110 1061 q 46 1171 46 1124 z "},"Ì":{"ha":608,"x_min":29,"x_max":579,"o":"m 29 0 l 29 122 l 86 122 q 156 136 140 122 q 171 203 171 149 l 171 729 q 156 797 171 783 q 86 810 140 810 l 29 810 l 29 932 l 579 932 l 579 810 l 522 810 q 452 796 467 810 q 436 729 436 782 l 436 203 q 452 136 436 150 q 522 122 467 122 l 579 122 l 579 0 l 29 0 m 457 1027 l 375 1027 l 140 1143 q 84 1183 100 1163 q 67 1230 67 1203 q 89 1285 67 1263 q 144 1308 111 1308 q 196 1292 171 1308 q 257 1239 222 1277 l 457 1027 z "},"Ó":{"ha":1137,"x_min":46,"x_max":1092,"o":"m 349 465 q 401 187 349 275 q 570 100 454 100 q 737 187 684 100 q 790 465 790 275 q 737 743 790 656 q 570 831 684 831 q 401 743 454 831 q 349 465 349 656 m 46 465 q 185 828 46 696 q 570 960 325 960 q 952 828 813 960 q 1092 465 1092 696 q 953 103 1092 235 q 570 -28 814 -28 q 185 104 325 -28 q 46 465 46 235 m 417 1027 l 617 1239 q 678 1293 654 1278 q 730 1308 703 1308 q 785 1285 763 1308 q 807 1230 807 1263 q 790 1183 807 1204 q 734 1143 772 1163 l 499 1027 l 417 1027 z "},"Ô":{"ha":1137,"x_min":46,"x_max":1092,"o":"m 349 465 q 401 187 349 275 q 570 100 454 100 q 737 187 684 100 q 790 465 790 275 q 737 743 790 656 q 570 831 684 831 q 401 743 454 831 q 349 465 349 656 m 46 465 q 185 828 46 696 q 570 960 325 960 q 952 828 813 960 q 1092 465 1092 696 q 953 103 1092 235 q 570 -28 814 -28 q 185 104 325 -28 q 46 465 46 235 m 339 1025 l 503 1292 l 636 1292 l 800 1025 l 728 1025 l 570 1149 l 412 1025 l 339 1025 z "},"":{"ha":1097,"x_min":77,"x_max":1021,"o":"m 567 825 q 566 834 566 829 q 566 850 566 840 q 630 1005 566 934 q 790 1095 694 1077 q 791 1079 791 1088 q 791 1053 791 1070 q 721 893 791 964 q 583 823 651 823 l 578 823 q 573 824 576 823 q 567 825 570 825 m 1021 273 q 882 41 943 106 q 743 -24 820 -24 q 654 -1 709 -24 q 571 21 599 21 q 482 -1 541 21 q 396 -24 424 -24 q 309 6 353 -24 q 221 96 265 36 q 114 296 152 191 q 77 500 77 401 q 161 742 77 648 q 380 835 246 835 q 486 812 427 835 q 570 789 545 789 q 652 812 593 789 q 755 835 711 835 q 890 808 831 835 q 999 725 950 781 q 896 626 930 681 q 863 503 863 572 q 903 367 863 426 q 1021 273 944 308 z "},"Ò":{"ha":1137,"x_min":46,"x_max":1092,"o":"m 349 465 q 401 187 349 275 q 570 100 454 100 q 737 187 684 100 q 790 465 790 275 q 737 743 790 656 q 570 831 684 831 q 401 743 454 831 q 349 465 349 656 m 46 465 q 185 828 46 696 q 570 960 325 960 q 952 828 813 960 q 1092 465 1092 696 q 953 103 1092 235 q 570 -28 814 -28 q 185 104 325 -28 q 46 465 46 235 m 722 1027 l 640 1027 l 406 1143 q 349 1183 366 1163 q 332 1230 332 1203 q 354 1285 332 1263 q 410 1308 376 1308 q 461 1292 436 1308 q 522 1239 487 1277 l 722 1027 z "},"Ú":{"ha":1071,"x_min":26,"x_max":1044,"o":"m 26 814 l 26 932 l 554 932 l 554 814 q 535 815 545 814 q 507 815 525 815 q 431 794 450 815 q 412 677 412 773 l 412 304 q 449 154 412 198 q 572 110 486 110 q 720 152 675 110 q 764 293 764 194 l 764 671 q 744 790 764 766 q 665 815 725 815 q 643 815 651 815 q 629 814 635 814 l 629 932 l 1044 932 l 1044 814 q 964 809 991 814 q 926 791 936 804 q 918 764 920 785 q 916 669 916 743 l 916 275 q 816 48 916 126 q 525 -29 716 -29 q 253 48 350 -29 q 155 264 155 125 l 155 673 q 137 788 155 760 q 66 815 118 815 q 43 815 52 815 q 26 814 34 814 m 433 1027 l 633 1239 q 694 1293 670 1278 q 746 1308 719 1308 q 801 1285 779 1308 q 823 1230 823 1263 q 806 1183 823 1204 q 750 1143 789 1163 l 515 1027 l 433 1027 z "},"Û":{"ha":1071,"x_min":26,"x_max":1044,"o":"m 26 814 l 26 932 l 554 932 l 554 814 q 535 815 545 814 q 507 815 525 815 q 431 794 450 815 q 412 677 412 773 l 412 304 q 449 154 412 198 q 572 110 486 110 q 720 152 675 110 q 764 293 764 194 l 764 671 q 744 790 764 766 q 665 815 725 815 q 643 815 651 815 q 629 814 635 814 l 629 932 l 1044 932 l 1044 814 q 964 809 991 814 q 926 791 936 804 q 918 764 920 785 q 916 669 916 743 l 916 275 q 816 48 916 126 q 525 -29 716 -29 q 253 48 350 -29 q 155 264 155 125 l 155 673 q 137 788 155 760 q 66 815 118 815 q 43 815 52 815 q 26 814 34 814 m 355 1025 l 519 1292 l 652 1292 l 817 1025 l 744 1025 l 586 1149 l 428 1025 l 355 1025 z "},"Ù":{"ha":1071,"x_min":26,"x_max":1044,"o":"m 26 814 l 26 932 l 554 932 l 554 814 q 535 815 545 814 q 507 815 525 815 q 431 794 450 815 q 412 677 412 773 l 412 304 q 449 154 412 198 q 572 110 486 110 q 720 152 675 110 q 764 293 764 194 l 764 671 q 744 790 764 766 q 665 815 725 815 q 643 815 651 815 q 629 814 635 814 l 629 932 l 1044 932 l 1044 814 q 964 809 991 814 q 926 791 936 804 q 918 764 920 785 q 916 669 916 743 l 916 275 q 816 48 916 126 q 525 -29 716 -29 q 253 48 350 -29 q 155 264 155 125 l 155 673 q 137 788 155 760 q 66 815 118 815 q 43 815 52 815 q 26 814 34 814 m 739 1027 l 656 1027 l 422 1143 q 365 1183 382 1163 q 349 1230 349 1203 q 371 1285 349 1263 q 426 1308 393 1308 q 478 1292 452 1308 q 538 1239 503 1277 l 739 1027 z "},"ı":{"ha":503,"x_min":33,"x_max":472,"o":"m 140 458 l 140 467 q 129 530 140 519 q 78 541 117 541 l 33 541 l 33 656 l 375 656 l 375 178 q 387 124 375 136 q 437 113 399 113 l 472 113 l 472 0 l 33 0 l 33 113 l 75 113 q 128 124 115 113 q 140 178 140 136 l 140 458 z "},"ˆ":{"ha":694,"x_min":117,"x_max":578,"o":"m 117 746 l 281 1013 l 414 1013 l 578 746 l 505 746 l 347 869 l 189 746 l 117 746 z "},"˜":{"ha":694,"x_min":111,"x_max":582,"o":"m 171 768 l 111 768 q 171 912 129 864 q 278 960 212 960 q 305 958 291 960 q 335 951 319 956 l 421 929 q 443 925 436 926 q 454 924 450 924 q 496 939 480 924 q 522 990 511 954 l 582 990 q 522 847 564 896 q 418 799 480 799 q 395 801 408 799 q 368 806 383 802 l 285 829 q 259 834 269 833 q 243 836 249 836 q 197 819 215 836 q 171 768 178 802 z "},"¯":{"ha":694,"x_min":126,"x_max":568,"o":"m 126 818 l 126 940 l 568 940 l 568 818 l 126 818 z "},"˘":{"ha":694,"x_min":113,"x_max":581,"o":"m 113 990 l 179 990 q 232 922 194 943 q 347 901 271 901 q 463 922 423 901 q 514 990 502 943 l 581 989 q 506 825 566 882 q 347 768 445 768 q 189 826 250 768 q 113 990 128 883 z "},"˙":{"ha":694,"x_min":240,"x_max":456,"o":"m 240 880 q 272 956 240 924 q 347 989 304 989 q 424 957 393 989 q 456 880 456 926 q 425 804 456 834 q 347 774 394 774 q 272 805 303 774 q 240 880 240 837 z "},"˚":{"ha":694,"x_min":157,"x_max":539,"o":"m 264 922 q 288 862 264 886 q 347 838 311 838 q 408 862 383 838 q 433 922 433 887 q 408 982 433 957 q 347 1007 382 1007 q 288 982 312 1007 q 264 922 264 958 m 157 922 q 212 1058 157 1002 q 347 1114 267 1114 q 483 1058 427 1114 q 539 922 539 1002 q 483 787 539 842 q 347 732 427 732 q 212 787 267 732 q 157 922 157 842 z "},"¸":{"ha":694,"x_min":129,"x_max":530,"o":"m 129 -262 l 164 -189 q 255 -230 211 -216 q 338 -244 298 -244 q 380 -230 364 -244 q 396 -191 396 -215 q 379 -147 396 -161 q 329 -132 362 -132 q 294 -136 319 -132 q 286 -138 289 -137 l 286 0 l 349 0 l 349 -74 q 373 -69 361 -71 q 399 -68 385 -68 q 495 -101 460 -68 q 530 -192 530 -134 q 487 -291 530 -254 q 368 -328 443 -328 q 269 -313 324 -328 q 129 -262 213 -298 z "},"˝":{"ha":694,"x_min":180,"x_max":700,"o":"m 370 747 l 530 954 l 532 956 q 635 1028 588 1028 q 681 1008 661 1028 q 700 960 700 987 q 686 921 700 940 q 642 884 672 903 l 435 747 l 370 747 m 180 747 l 286 942 q 336 1011 315 994 q 383 1029 357 1029 q 431 1010 411 1029 q 450 964 450 991 q 439 929 450 947 q 406 890 429 911 l 245 747 l 180 747 z "},"˛":{"ha":694,"x_min":218,"x_max":511,"o":"m 465 35 q 375 -61 404 -15 q 346 -154 346 -106 q 362 -209 346 -189 q 407 -228 378 -228 q 449 -217 431 -228 q 486 -178 467 -205 l 511 -193 q 439 -290 481 -258 q 342 -322 397 -322 q 252 -293 285 -322 q 218 -212 218 -263 q 269 -89 218 -150 q 424 35 319 -28 l 465 35 z "},"ˇ":{"ha":694,"x_min":117,"x_max":578,"o":"m 117 1013 l 189 1013 l 347 889 l 505 1013 l 578 1013 l 414 746 l 281 746 l 117 1013 z "},"Ł":{"ha":968,"x_min":9,"x_max":905,"o":"m 32 932 l 574 932 l 574 810 l 515 810 q 445 796 460 810 q 429 729 429 782 l 429 562 l 646 708 l 646 581 l 429 435 l 429 122 l 503 122 q 651 132 610 122 q 717 167 692 142 q 761 242 745 193 q 783 380 777 290 l 905 380 l 905 0 l 32 0 l 32 122 l 83 122 q 154 136 138 122 q 170 203 170 150 l 170 329 l 9 221 l 9 349 l 170 457 l 170 729 q 154 796 170 782 q 83 810 138 810 l 32 810 l 32 932 z "},"ł":{"ha":500,"x_min":0,"x_max":497,"o":"m 366 932 l 366 572 l 497 657 l 497 554 l 366 468 l 366 178 q 377 123 366 134 q 428 113 389 113 l 467 113 l 467 0 l 29 0 l 29 113 l 66 113 q 119 124 106 113 q 131 178 131 136 l 131 374 l 0 288 l 0 392 l 131 476 l 131 737 q 120 806 131 793 q 69 819 109 819 l 29 819 l 29 932 l 366 932 z "},"Š":{"ha":929,"x_min":43,"x_max":895,"o":"m 171 -12 l 58 -12 l 58 354 l 183 354 q 279 175 200 242 q 472 109 357 109 q 595 138 551 109 q 640 220 640 168 q 473 339 640 300 q 432 349 446 345 q 230 406 286 383 q 138 457 174 428 q 67 545 91 494 q 43 657 43 595 q 142 876 43 798 q 422 954 241 954 q 582 935 513 954 q 703 876 652 916 l 730 942 l 846 942 l 846 602 l 718 602 q 633 763 706 705 q 443 822 559 822 q 332 793 373 822 q 292 714 292 764 q 475 604 292 643 q 586 579 545 589 q 820 467 746 540 q 895 275 895 393 q 790 54 895 136 q 509 -28 686 -28 q 342 -5 423 -28 q 208 56 262 18 l 171 -12 m 235 1292 l 307 1292 l 465 1168 l 623 1292 l 696 1292 l 532 1025 l 399 1025 l 235 1292 z "},"š":{"ha":772,"x_min":52,"x_max":721,"o":"m 158 -7 l 60 -7 l 60 237 l 170 237 q 248 133 194 170 q 372 96 301 96 q 447 112 421 96 q 473 157 473 127 q 456 192 473 179 q 368 224 439 205 q 336 232 357 227 q 123 313 178 273 q 70 376 89 338 q 52 458 52 414 q 133 620 52 559 q 350 681 214 681 q 464 667 410 681 q 572 625 518 654 l 587 663 l 686 663 l 686 453 l 587 453 q 498 537 552 508 q 380 567 445 567 q 318 551 341 567 q 296 507 296 535 q 455 420 296 460 q 524 403 498 410 q 670 325 618 377 q 721 201 721 273 q 636 39 721 101 q 412 -24 551 -24 q 299 -8 355 -24 q 179 41 243 7 l 158 -7 m 155 1013 l 228 1013 l 386 889 l 544 1013 l 616 1013 l 452 746 l 319 746 l 155 1013 z "},"Ž":{"ha":903,"x_min":32,"x_max":871,"o":"m 32 0 l 32 127 l 559 807 l 407 807 q 236 758 285 807 q 180 579 188 709 l 58 579 l 58 932 l 871 932 l 871 798 l 338 119 l 504 119 q 677 175 627 119 q 733 379 727 230 l 871 379 l 871 0 l 32 0 m 221 1292 l 294 1292 l 452 1168 l 610 1292 l 682 1292 l 518 1025 l 385 1025 l 221 1292 z "},"ž":{"ha":685,"x_min":32,"x_max":653,"o":"m 32 0 l 32 126 l 393 542 l 313 542 q 190 514 214 542 q 165 390 165 486 l 165 379 l 52 379 l 52 656 l 653 656 l 653 529 l 300 113 l 393 113 q 508 142 477 113 q 539 250 539 172 q 539 274 539 266 q 538 290 538 283 l 653 290 l 653 0 l 32 0 m 113 1013 l 185 1013 l 343 889 l 501 1013 l 574 1013 l 410 746 l 277 746 l 113 1013 z "},"¦":{"ha":694,"x_min":267,"x_max":429,"o":"m 267 277 l 429 277 l 429 -237 l 267 -237 l 267 277 m 267 971 l 429 971 l 429 457 l 267 457 l 267 971 z "},"Ð":{"ha":1121,"x_min":8,"x_max":1075,"o":"m 429 122 l 525 122 q 715 202 657 122 q 772 467 772 282 q 715 732 772 654 q 518 810 657 810 l 429 810 l 429 541 l 608 541 l 608 428 l 429 428 l 429 122 m 32 0 l 32 122 l 83 122 q 154 136 138 122 q 170 203 170 150 l 170 428 l 8 428 l 8 541 l 170 541 l 170 729 q 154 796 170 782 q 83 810 138 810 l 32 810 l 32 932 l 525 932 q 940 817 804 932 q 1075 467 1075 703 q 939 115 1075 230 q 525 0 804 0 l 32 0 z "},"ð":{"ha":829,"x_min":35,"x_max":794,"o":"m 285 307 q 314 135 285 182 q 414 87 342 87 q 514 135 486 87 q 543 307 543 182 q 514 479 543 432 q 414 526 486 526 q 314 479 342 526 q 285 307 285 432 m 503 625 q 456 698 481 663 q 403 768 431 734 l 186 672 l 153 745 l 345 831 q 301 873 323 852 q 254 917 279 895 l 325 977 q 405 924 370 948 q 461 882 440 899 l 682 981 l 715 911 l 530 825 q 731 584 669 702 q 794 332 794 466 q 696 67 794 159 q 414 -24 599 -24 q 135 64 236 -24 q 35 307 35 153 q 134 547 35 456 q 393 639 233 639 q 438 636 413 639 q 503 625 464 633 z "},"Ý":{"ha":1083,"x_min":32,"x_max":1044,"o":"m 673 214 q 688 136 673 153 q 760 119 703 119 l 825 119 l 825 0 l 262 0 l 262 119 l 328 119 q 400 137 385 119 q 415 214 415 154 l 415 385 l 211 704 q 132 789 171 767 q 33 814 94 812 l 32 932 l 566 932 l 566 814 l 521 814 q 477 805 492 814 q 463 779 463 797 q 469 757 463 771 q 494 715 476 743 l 603 547 l 729 737 q 742 762 737 749 q 746 785 746 774 q 728 807 746 800 q 672 814 711 814 l 650 814 l 650 932 l 1044 932 l 1044 814 l 1040 814 q 955 793 988 814 q 878 704 921 773 l 673 385 l 673 214 m 389 1027 l 589 1239 q 650 1293 626 1278 q 702 1308 675 1308 q 757 1285 735 1308 q 779 1230 779 1263 q 762 1183 779 1204 q 706 1143 745 1163 l 471 1027 l 389 1027 z "},"ý":{"ha":827,"x_min":18,"x_max":810,"o":"m 354 -47 l 139 463 q 102 526 118 511 q 61 541 85 541 l 24 541 l 24 656 l 444 656 l 444 541 l 412 541 q 370 535 384 541 q 355 518 355 529 q 371 469 355 505 l 372 467 l 473 233 l 562 458 l 566 465 q 582 519 582 507 q 570 535 582 530 q 532 541 558 541 l 500 541 l 500 656 l 810 656 l 810 541 q 740 525 762 539 q 696 457 718 511 l 485 -56 q 367 -248 428 -194 q 215 -302 307 -302 q 73 -252 128 -302 q 18 -122 18 -202 q 53 -27 18 -63 q 144 8 87 8 q 224 -18 195 8 q 254 -87 254 -44 q 228 -156 254 -131 q 157 -182 202 -182 q 143 -181 148 -182 q 134 -180 138 -181 q 164 -206 149 -198 q 196 -214 180 -214 q 287 -171 246 -214 q 354 -47 328 -128 m 261 747 l 461 960 q 522 1014 498 999 q 574 1028 547 1028 q 629 1006 607 1028 q 651 950 651 983 q 634 904 651 924 q 578 864 616 884 l 343 747 l 261 747 z "},"Þ":{"ha":1015,"x_min":26,"x_max":970,"o":"m 421 326 l 509 326 q 658 359 616 326 q 700 471 700 391 q 655 574 700 543 q 509 606 611 606 l 421 606 l 421 326 m 163 729 q 148 797 163 783 q 78 810 132 810 l 26 810 l 26 932 l 561 932 l 561 810 l 510 810 q 439 797 455 810 q 424 745 424 784 l 424 729 l 602 729 q 881 664 793 729 q 970 460 970 600 q 947 352 970 401 q 880 268 924 303 q 775 219 838 234 q 602 204 713 204 l 424 204 l 424 196 q 439 135 424 149 q 510 122 454 122 l 559 122 l 559 0 l 26 0 l 26 122 l 78 122 q 148 135 133 122 q 163 203 163 149 l 163 729 z "},"þ":{"ha":863,"x_min":22,"x_max":821,"o":"m 461 557 q 378 498 406 557 q 350 319 350 439 q 377 158 350 211 q 461 104 405 104 q 544 159 517 104 q 570 330 570 214 q 543 502 570 446 q 461 557 516 557 m 119 -121 l 119 754 q 106 806 119 793 q 54 819 94 819 l 22 819 l 22 932 l 350 932 l 350 575 q 436 653 386 627 q 549 679 486 679 q 751 590 682 679 q 821 330 821 500 q 748 72 821 168 q 555 -24 676 -24 q 443 0 493 -24 q 351 74 392 24 l 351 -121 q 364 -174 351 -161 q 416 -186 377 -186 l 463 -186 l 463 -298 l 22 -298 l 22 -186 l 54 -186 q 106 -173 94 -186 q 119 -121 119 -161 z "},"−":{"ha":1157,"x_min":172,"x_max":985,"o":"m 172 494 l 985 494 l 985 335 l 172 335 l 172 494 z "},"×":{"ha":1157,"x_min":182,"x_max":999,"o":"m 292 823 l 590 525 l 889 823 l 999 714 l 700 414 l 999 115 l 889 5 l 590 304 l 292 5 l 182 115 l 481 414 l 182 714 l 292 823 z "},"¹":{"ha":582,"x_min":104,"x_max":478,"o":"m 104 339 l 104 408 l 146 408 q 199 416 186 408 q 212 457 212 424 l 212 472 l 212 707 l 104 707 l 104 775 q 204 794 167 777 q 257 846 242 811 l 374 846 l 374 467 q 385 417 374 427 q 441 408 395 408 l 478 408 l 478 339 l 104 339 z "},"²":{"ha":582,"x_min":39,"x_max":534,"o":"m 39 339 l 39 367 q 60 452 39 413 q 125 528 81 491 q 225 587 156 553 q 269 610 256 602 q 329 655 313 634 q 345 704 345 676 q 315 762 345 740 q 235 783 285 783 q 167 769 194 783 q 128 727 140 755 q 142 729 135 728 q 155 730 149 730 q 202 715 184 730 q 220 673 220 699 q 196 624 220 644 q 136 604 172 604 q 65 629 92 604 q 39 696 39 654 q 106 814 39 766 q 278 861 174 861 q 455 815 389 861 q 521 692 521 768 q 478 594 521 634 q 351 530 436 553 q 321 522 341 528 q 146 437 184 486 q 200 458 172 452 q 261 465 229 465 q 341 456 295 465 q 400 447 387 447 q 441 463 429 447 q 453 518 453 479 l 533 518 q 534 506 534 513 q 534 488 534 500 q 494 364 534 404 q 370 323 454 323 q 274 345 332 323 q 254 351 260 349 q 205 366 224 361 q 171 371 185 371 q 138 362 152 371 q 117 339 124 354 l 39 339 z "},"³":{"ha":582,"x_min":41,"x_max":541,"o":"m 240 570 l 241 640 q 324 661 296 642 q 351 714 351 679 q 322 771 351 750 q 241 791 293 791 q 191 785 213 791 q 151 764 169 778 l 160 764 q 205 749 189 764 q 222 710 222 734 q 201 662 222 680 q 144 644 180 644 q 82 665 105 644 q 60 721 60 685 q 120 823 60 785 q 282 861 180 861 q 457 825 395 861 q 518 724 518 789 q 487 651 518 681 q 400 612 456 622 q 506 565 471 597 q 541 485 541 534 q 471 365 541 406 q 269 323 402 323 q 103 361 164 323 q 41 463 41 399 q 67 528 41 503 q 136 553 94 553 q 194 533 171 553 q 216 484 216 513 q 197 439 216 455 q 143 422 177 422 q 187 401 163 408 q 244 395 212 395 q 334 419 302 395 q 366 490 366 444 q 335 550 366 531 q 240 570 305 570 z "},"¼":{"ha":1343,"x_min":100,"x_max":1311,"o":"m 985 0 l 985 64 l 1008 64 q 1063 71 1050 64 q 1076 109 1076 77 l 1076 113 l 1076 144 l 822 144 l 822 218 l 1095 473 l 1226 473 l 1226 212 l 1311 212 l 1311 144 l 1226 144 l 1226 97 q 1238 70 1226 77 q 1287 64 1249 64 l 1311 64 l 1311 0 l 985 0 m 909 212 l 1076 212 l 1078 366 l 909 212 m 323 -25 l 903 871 l 1018 871 l 447 -25 l 323 -25 m 100 372 l 100 436 l 139 436 q 190 444 177 436 q 203 482 203 451 l 203 497 l 203 717 l 100 717 l 100 779 q 195 797 159 781 q 244 846 231 813 l 357 846 l 357 492 q 367 445 357 454 q 421 436 378 436 l 456 436 l 456 372 l 100 372 z "},"½":{"ha":1343,"x_min":100,"x_max":1297,"o":"m 825 0 q 824 10 824 5 q 823 25 823 15 q 844 106 823 69 q 907 176 865 143 q 985 222 935 197 q 1044 253 1034 247 q 1100 294 1084 274 q 1116 342 1116 313 q 1087 395 1116 375 q 1011 415 1059 415 q 946 402 972 415 q 910 361 921 389 q 924 365 918 363 q 936 366 930 366 q 981 351 964 366 q 997 313 997 336 q 974 267 997 285 q 917 249 951 249 q 849 272 874 249 q 823 334 823 294 q 888 443 823 399 q 1053 488 954 488 q 1221 444 1158 488 q 1284 329 1284 401 q 1244 238 1284 275 q 1123 179 1203 200 q 1091 170 1113 176 q 926 93 962 136 q 980 112 953 106 q 1038 118 1008 118 q 1113 110 1069 118 q 1169 102 1156 102 q 1208 116 1196 102 q 1219 167 1219 131 l 1297 167 l 1297 139 q 1259 24 1297 61 q 1140 -14 1221 -14 q 1048 5 1103 -14 q 1031 11 1036 9 q 983 26 1002 22 q 951 31 964 31 q 920 23 933 31 q 900 0 907 15 l 825 0 m 323 -25 l 903 871 l 1018 871 l 447 -25 l 323 -25 m 100 372 l 100 436 l 139 436 q 190 444 177 436 q 203 482 203 451 l 203 497 l 203 717 l 100 717 l 100 779 q 195 797 159 781 q 244 846 231 813 l 357 846 l 357 492 q 367 445 357 454 q 421 436 378 436 l 456 436 l 456 372 l 100 372 z "},"¾":{"ha":1343,"x_min":39,"x_max":1311,"o":"m 985 0 l 985 64 l 1008 64 q 1063 71 1050 64 q 1076 109 1076 77 l 1076 113 l 1076 144 l 822 144 l 822 218 l 1095 473 l 1226 473 l 1226 212 l 1311 212 l 1311 144 l 1226 144 l 1226 97 q 1238 70 1226 77 q 1287 64 1249 64 l 1311 64 l 1311 0 l 985 0 m 909 212 l 1076 212 l 1078 366 l 909 212 m 323 -25 l 903 871 l 1018 871 l 447 -25 l 323 -25 m 229 587 l 229 652 q 310 672 283 655 q 336 722 336 690 q 308 776 336 756 q 231 796 279 796 q 183 789 205 796 q 144 770 162 783 l 153 770 q 196 755 180 770 q 212 718 212 741 q 192 673 212 690 q 138 657 172 657 q 79 676 100 657 q 57 729 57 696 q 114 824 57 789 q 268 860 171 860 q 435 826 376 860 q 494 732 494 793 q 465 664 494 691 q 382 628 435 636 q 483 584 450 613 q 517 509 517 554 q 450 395 517 434 q 257 357 384 357 q 98 392 157 357 q 39 488 39 428 q 64 549 39 525 q 129 572 90 572 q 185 554 163 572 q 207 507 207 535 q 188 466 207 481 q 136 450 168 450 q 178 431 155 437 q 233 425 201 425 q 319 448 289 425 q 349 513 349 471 q 320 569 349 551 q 229 587 291 587 z "},"₣":{"ha":1662,"x_min":26,"x_max":1640,"o":"m 26 0 l 26 122 l 78 122 q 148 136 132 122 q 163 203 163 149 l 163 729 q 148 797 163 783 q 78 810 132 810 l 26 810 l 26 932 l 900 932 l 900 551 l 778 551 q 755 690 771 640 q 710 766 739 739 q 646 800 686 790 q 497 810 607 810 l 424 810 l 424 545 l 433 545 q 525 575 499 545 q 550 685 550 606 l 550 692 l 667 692 l 667 267 l 550 267 q 526 391 549 357 q 444 424 503 424 q 434 423 441 424 q 424 422 427 422 l 424 203 q 439 136 424 150 q 510 122 454 122 l 568 122 l 568 0 l 26 0 m 986 0 l 986 113 l 1027 113 q 1080 125 1067 113 q 1093 178 1093 138 l 1093 478 q 1080 531 1093 518 q 1027 543 1067 543 l 986 543 l 986 656 l 1314 656 l 1314 590 q 1393 653 1350 632 q 1480 675 1435 675 q 1597 633 1554 675 q 1640 522 1640 592 q 1606 425 1640 462 q 1516 389 1572 389 q 1444 417 1473 389 q 1415 488 1415 446 q 1433 541 1415 519 q 1483 572 1451 563 q 1461 581 1470 578 q 1443 583 1451 583 q 1358 528 1392 583 q 1325 386 1325 473 l 1325 178 q 1338 125 1325 138 q 1390 113 1350 113 l 1446 113 l 1446 0 l 986 0 z "},"Ğ":{"ha":1086,"x_min":46,"x_max":1078,"o":"m 840 -9 l 806 61 q 664 -6 736 16 q 511 -28 591 -28 q 172 102 298 -28 q 46 453 46 232 q 177 819 46 679 q 517 960 307 960 q 660 939 593 960 q 789 873 726 918 l 812 942 l 940 942 l 940 567 l 807 567 q 734 758 792 696 q 568 821 675 821 q 404 735 460 821 q 349 484 349 650 q 400 198 349 287 q 562 110 451 110 q 673 136 642 110 q 704 235 704 163 l 704 300 q 692 361 704 350 q 637 372 680 372 l 570 372 l 570 494 l 1078 494 l 1078 372 l 1028 372 q 977 359 991 372 q 964 310 964 346 l 964 -9 l 840 -9 m 309 1270 l 375 1270 q 428 1201 390 1222 q 543 1181 467 1181 q 659 1202 619 1181 q 710 1270 698 1223 l 777 1268 q 702 1105 762 1162 q 543 1048 641 1048 q 385 1105 446 1048 q 309 1270 324 1162 z "},"ğ":{"ha":895,"x_min":43,"x_max":901,"o":"m 380 245 q 441 286 423 245 q 460 425 460 326 q 442 554 460 516 q 382 591 424 591 q 321 551 340 591 q 302 412 302 510 q 321 286 302 327 q 380 245 340 245 m 212 -150 q 264 -192 212 -178 q 415 -205 315 -205 q 580 -192 530 -205 q 629 -146 629 -178 q 587 -105 629 -117 q 429 -93 545 -93 q 256 -105 300 -93 q 212 -150 212 -118 m 163 218 q 100 311 120 262 q 79 414 79 359 q 161 610 79 540 q 390 681 243 681 q 502 665 451 681 q 599 616 553 649 q 672 665 635 649 q 747 681 709 681 q 858 642 815 681 q 901 542 901 603 q 876 470 901 497 q 808 443 850 443 q 744 466 770 443 q 718 521 718 489 q 727 559 718 541 q 754 595 736 577 q 739 607 747 603 q 722 611 730 611 q 686 600 706 611 q 642 566 665 588 q 676 498 665 535 q 688 416 688 460 q 602 225 688 296 q 370 154 515 154 q 300 160 336 154 q 229 179 265 167 q 208 161 215 171 q 201 140 201 152 q 237 101 201 112 q 403 90 273 90 q 478 91 431 90 q 546 92 526 92 q 732 46 669 92 q 794 -89 794 1 q 701 -252 794 -202 q 390 -302 608 -302 q 129 -269 214 -302 q 43 -165 43 -235 q 70 -97 43 -125 q 153 -56 98 -70 q 78 7 102 -28 q 54 90 54 43 q 81 162 54 131 q 163 218 108 194 m 212 990 l 279 990 q 332 922 294 943 q 447 901 370 901 q 562 922 523 901 q 614 990 602 943 l 680 989 q 605 825 666 882 q 447 768 545 768 q 289 826 349 768 q 212 990 228 883 z "},"İ":{"ha":608,"x_min":29,"x_max":579,"o":"m 29 0 l 29 122 l 86 122 q 156 136 140 122 q 171 203 171 149 l 171 729 q 156 797 171 783 q 86 810 140 810 l 29 810 l 29 932 l 579 932 l 579 810 l 522 810 q 452 796 467 810 q 436 729 436 782 l 436 203 q 452 136 436 150 q 522 122 467 122 l 579 122 l 579 0 l 29 0 m 197 1160 q 230 1236 197 1203 q 304 1268 262 1268 q 381 1237 350 1268 q 413 1160 413 1205 q 382 1083 413 1114 q 304 1053 351 1053 q 229 1085 260 1053 q 197 1160 197 1116 z "},"Ş":{"ha":929,"x_min":43,"x_max":895,"o":"m 171 -12 l 58 -12 l 58 354 l 183 354 q 279 175 200 242 q 472 109 357 109 q 595 138 551 109 q 640 220 640 168 q 473 339 640 300 q 432 349 446 345 q 230 406 286 383 q 138 457 174 428 q 67 545 91 494 q 43 657 43 595 q 142 876 43 798 q 422 954 241 954 q 582 935 513 954 q 703 876 652 916 l 730 942 l 846 942 l 846 602 l 718 602 q 633 763 706 705 q 443 822 559 822 q 332 793 373 822 q 292 714 292 764 q 475 604 292 643 q 586 579 545 589 q 820 467 746 540 q 895 275 895 393 q 790 54 895 136 q 509 -28 686 -28 q 342 -5 423 -28 q 208 56 262 18 l 171 -12 m 247 -262 l 282 -189 q 373 -230 329 -216 q 456 -244 416 -244 q 498 -230 482 -244 q 514 -191 514 -215 q 497 -147 514 -161 q 447 -132 480 -132 q 412 -136 437 -132 q 404 -138 407 -137 l 404 0 l 467 0 l 467 -74 q 491 -69 479 -71 q 517 -68 503 -68 q 613 -101 578 -68 q 648 -192 648 -134 q 605 -291 648 -254 q 486 -328 561 -328 q 387 -313 442 -328 q 247 -262 331 -298 z "},"ş":{"ha":772,"x_min":52,"x_max":721,"o":"m 158 -7 l 60 -7 l 60 237 l 170 237 q 248 133 194 170 q 372 96 301 96 q 447 112 421 96 q 473 157 473 127 q 456 192 473 179 q 368 224 439 205 q 336 232 357 227 q 123 313 178 273 q 70 376 89 338 q 52 458 52 414 q 133 620 52 559 q 350 681 214 681 q 464 667 410 681 q 572 625 518 654 l 587 663 l 686 663 l 686 453 l 587 453 q 498 537 552 508 q 380 567 445 567 q 318 551 341 567 q 296 507 296 535 q 455 420 296 460 q 524 403 498 410 q 670 325 618 377 q 721 201 721 273 q 636 39 721 101 q 412 -24 551 -24 q 299 -8 355 -24 q 179 41 243 7 l 158 -7 m 168 -262 l 203 -189 q 293 -230 250 -216 q 376 -244 337 -244 q 419 -230 403 -244 q 435 -191 435 -215 q 418 -147 435 -161 q 368 -132 401 -132 q 332 -136 357 -132 q 325 -138 328 -137 l 325 0 l 387 0 l 387 -74 q 412 -69 399 -71 q 437 -68 424 -68 q 534 -101 499 -68 q 569 -192 569 -134 q 525 -291 569 -254 q 407 -328 481 -328 q 307 -313 363 -328 q 168 -262 252 -298 z "},"Ć":{"ha":1022,"x_min":46,"x_max":957,"o":"m 810 361 l 957 361 q 847 70 951 168 q 542 -28 743 -28 q 181 106 315 -28 q 46 467 46 241 q 81 668 46 579 q 187 828 115 757 q 339 928 256 896 q 530 960 422 960 q 673 938 606 960 q 802 869 740 916 l 829 943 l 957 943 l 957 564 l 821 564 q 750 755 812 686 q 586 823 688 823 q 411 730 474 823 q 349 468 349 637 q 411 204 349 296 q 587 111 473 111 q 744 177 685 111 q 810 361 802 243 m 380 1027 l 581 1239 q 642 1293 617 1278 q 693 1308 666 1308 q 748 1285 726 1308 q 770 1230 770 1263 q 753 1183 770 1204 q 697 1143 736 1163 l 463 1027 l 380 1027 z "},"ć":{"ha":697,"x_min":32,"x_max":667,"o":"m 515 231 l 661 231 q 580 42 654 109 q 374 -24 505 -24 q 121 69 211 -24 q 32 329 32 161 q 125 586 32 492 q 378 681 218 681 q 588 618 509 681 q 667 454 667 556 q 629 351 667 389 q 526 313 591 313 q 443 342 474 313 q 411 422 411 372 q 439 498 411 471 q 515 525 467 525 l 518 525 q 475 554 498 545 q 425 564 453 564 q 314 507 351 564 q 277 336 277 450 q 308 161 277 218 q 404 104 339 104 q 484 136 456 104 q 515 231 512 168 m 222 747 l 422 960 q 484 1014 459 999 q 535 1028 508 1028 q 590 1006 568 1028 q 612 950 612 983 q 595 904 612 924 q 539 864 578 884 l 304 747 l 222 747 z "},"Č":{"ha":1022,"x_min":46,"x_max":957,"o":"m 810 361 l 957 361 q 847 70 951 168 q 542 -28 743 -28 q 181 106 315 -28 q 46 467 46 241 q 81 668 46 579 q 187 828 115 757 q 339 928 256 896 q 530 960 422 960 q 673 938 606 960 q 802 869 740 916 l 829 943 l 957 943 l 957 564 l 821 564 q 750 755 812 686 q 586 823 688 823 q 411 730 474 823 q 349 468 349 637 q 411 204 349 296 q 587 111 473 111 q 744 177 685 111 q 810 361 802 243 m 302 1292 l 375 1292 l 533 1168 l 691 1292 l 764 1292 l 600 1025 l 467 1025 l 302 1292 z "},"č":{"ha":697,"x_min":32,"x_max":667,"o":"m 515 231 l 661 231 q 580 42 654 109 q 374 -24 505 -24 q 121 69 211 -24 q 32 329 32 161 q 125 586 32 492 q 378 681 218 681 q 588 618 509 681 q 667 454 667 556 q 629 351 667 389 q 526 313 591 313 q 443 342 474 313 q 411 422 411 372 q 439 498 411 471 q 515 525 467 525 l 518 525 q 475 554 498 545 q 425 564 453 564 q 314 507 351 564 q 277 336 277 450 q 308 161 277 218 q 404 104 339 104 q 484 136 456 104 q 515 231 512 168 m 144 1013 l 217 1013 l 375 889 l 533 1013 l 606 1013 l 441 746 l 309 746 l 144 1013 z "},"đ":{"ha":867,"x_min":43,"x_max":880,"o":"m 511 553 l 511 700 l 317 700 l 317 786 l 511 786 l 511 790 q 496 826 511 815 q 446 836 481 836 l 400 836 l 400 932 l 743 932 l 743 786 l 880 786 l 880 700 l 743 700 l 743 175 q 756 122 743 135 q 808 110 768 110 l 840 110 l 840 0 l 521 0 l 521 85 q 429 1 477 26 q 317 -25 380 -25 q 113 62 184 -25 q 43 313 43 149 q 117 556 43 463 q 307 650 191 650 q 420 626 370 650 q 511 553 470 602 m 511 311 q 484 470 511 417 q 403 522 457 522 q 320 469 348 522 q 293 310 293 416 q 321 152 293 208 q 403 97 350 97 q 484 151 457 97 q 511 311 511 205 z "},"­":{"ha":492,"x_min":50,"x_max":441,"o":"m 441 224 l 50 224 l 50 432 l 441 432 l 441 224 z "},"∙":{"ha":441,"x_min":103,"x_max":338,"o":"m 103 443 q 137 526 103 492 q 221 559 172 559 q 304 526 270 559 q 338 443 338 492 q 304 359 338 393 q 221 325 271 325 q 137 359 172 325 q 103 443 103 393 z "},"":{"ha":882,"x_min":-5,"x_max":848,"o":"m 848 306 q 754 62 844 147 q 504 -24 665 -24 q 254 60 358 -24 q 117 290 151 144 l -5 290 l 21 380 l 104 380 q 103 397 103 389 q 103 422 103 405 q 105 467 103 439 q 106 473 105 471 l -5 473 l 21 564 l 119 564 q 257 788 155 706 q 503 869 359 869 q 620 848 565 869 q 704 791 675 827 l 726 846 l 840 846 l 840 543 l 718 543 q 655 697 700 647 q 533 747 610 747 q 427 701 469 747 q 368 564 386 655 l 632 564 l 607 473 l 358 473 q 357 454 357 463 q 357 422 357 444 q 357 401 357 414 q 358 380 358 387 l 576 380 l 551 290 l 367 290 q 425 145 383 193 q 541 98 467 98 q 673 152 625 98 q 729 306 722 206 l 848 306 z "}}}
